<svg width="29" height="28" viewBox="0 0 29 28" fill="none" xmlns="http://www.w3.org/2000/svg">
    <path
        d="M26.7999 25.4327C24.6999 23.3327 22.5999 21.2327 20.3832 19.1327C20.2666 19.016 20.2666 18.8994 20.3832 18.7827C20.6166 18.5494 20.7332 18.316 20.9666 18.1994C22.0166 16.7994 22.7166 15.166 22.9499 13.416C23.1832 12.1327 23.0666 10.8494 22.8332 9.68268C22.3666 7.58268 21.4332 5.83268 20.0332 4.43268C18.3999 2.68268 16.4166 1.63268 14.0832 1.28268C13.6166 1.16602 13.3832 1.16602 13.0332 1.16602H12.6832C12.5666 1.16602 12.4499 1.16602 12.3332 1.16602H11.8666C11.7499 1.16602 11.6332 1.16602 11.5166 1.16602H11.1666C10.9332 1.16602 10.5832 1.16602 10.2332 1.16602C8.24991 1.51602 6.49991 2.33268 4.98324 3.73268C3.23324 5.13268 2.06658 6.99935 1.59991 9.21602C1.36658 9.68268 1.36658 10.266 1.36658 10.8494V11.1994C1.36658 11.316 1.36658 11.4327 1.36658 11.5494V11.8994C1.36658 12.016 1.36658 12.1327 1.36658 12.2494V12.716V12.8327C1.36658 13.416 1.48324 13.8827 1.59991 14.466C2.41658 17.266 4.04991 19.4827 6.49991 20.9994C8.83324 22.3994 11.3999 22.866 13.9666 22.3994C15.7166 22.0494 17.2332 21.466 18.6332 20.2994C18.7499 20.1827 18.8666 20.1827 18.9832 20.2994C21.0832 22.3994 23.1832 24.4994 25.2832 26.5994C25.3999 26.716 25.3999 26.716 25.5166 26.8327C25.9832 27.1827 26.6832 26.9494 26.7999 26.366C27.1499 25.8994 27.0332 25.666 26.7999 25.4327ZM17.6999 19.016C16.6499 19.8327 15.3666 20.416 13.9666 20.6494C11.3999 21.116 8.94991 20.6494 6.73324 19.1327C5.09991 17.966 4.04991 16.4494 3.46658 14.5827C2.99991 13.2994 2.88324 11.8994 3.11658 10.4994C3.46658 8.51602 4.28324 6.88268 5.68324 5.48268C6.84991 4.31602 8.36658 3.38268 9.99991 3.03268C13.8499 2.21602 17.1166 3.38268 19.5666 6.41602C20.8499 7.93268 21.3166 9.79935 21.4332 12.1327C21.1999 14.816 20.0332 17.1494 17.6999 19.016Z"
        fill="#666870" />
</svg>
