<svg width="29" height="28" viewBox="0 0 29 28" fill="none" xmlns="http://www.w3.org/2000/svg">
<g clip-path="url(#clip0_2122_10308)">
<path fill-rule="evenodd" clip-rule="evenodd" d="M13.7336 0.00676991H14.7727C15.7079 0.00130116 15.8555 0.0177074 16.2493 0.132551C16.4899 0.203645 16.8836 0.340364 17.1243 0.44427C17.4141 0.564583 18.0977 0.980207 19.1477 1.68568C20.0172 2.27083 22.0516 3.63802 23.6594 4.7263C26.1094 6.37786 26.6618 6.77708 27.0555 7.16537C27.318 7.4224 27.6625 7.83802 27.8321 8.09505C27.9961 8.35208 28.2094 8.74583 28.3079 8.97005C28.4063 9.19427 28.5485 9.61537 28.7727 10.4193V23.0521L28.625 23.599C28.5375 23.8997 28.3571 24.381 28.2204 24.6654C28.0836 24.9497 27.8649 25.3326 27.7391 25.513C27.6079 25.6935 27.3727 25.9833 27.2086 26.1638C27.0446 26.3388 26.7165 26.6341 26.4758 26.8146C26.2352 26.9951 25.7922 27.263 25.4915 27.4107C25.1415 27.5802 24.7094 27.7333 23.6321 28.0013H5.96802L5.33911 27.8482C4.95083 27.7497 4.49146 27.5857 4.13599 27.4161C3.8188 27.2685 3.36489 26.9951 3.12427 26.8146C2.88364 26.6341 2.55552 26.3388 2.39146 26.1638C2.22739 25.9833 1.99224 25.6935 1.86099 25.513C1.73521 25.3326 1.51646 24.9497 1.37974 24.6654C1.24302 24.381 1.06255 23.8997 0.827393 23.0521V10.474L0.953174 9.98177C1.02427 9.7138 1.16099 9.29271 1.25396 9.05208C1.35239 8.81146 1.57661 8.39037 1.75161 8.1224C1.93755 7.83802 2.27114 7.43333 2.54458 7.16537C2.94927 6.76615 3.61099 6.29583 7.36255 3.76927C9.75239 2.15599 11.8688 0.745051 12.0657 0.641145C12.2625 0.53177 12.7165 0.345832 13.0774 0.22552L13.7336 0.00676991ZM13.3508 2.61536C13.1704 2.6974 11.0922 4.07005 8.72974 5.66146C5.73286 7.67943 4.3438 8.6474 4.13599 8.86068C3.97192 9.03021 3.7477 9.31458 3.6438 9.48958C3.53989 9.67005 3.39224 9.9763 3.31567 10.1732L3.17896 10.5286V22.9427C3.39224 23.4896 3.53989 23.7958 3.6438 23.9708C3.7477 24.1458 3.98833 24.4411 4.1688 24.6271C4.35474 24.813 4.66099 25.0591 4.85239 25.1685C5.0438 25.2833 5.36099 25.431 5.55786 25.4966C5.85317 25.5951 6.07739 25.6169 6.84302 25.6333L7.77271 25.6552C7.83833 24.9279 7.89302 24.5286 7.94224 24.2935C7.98599 24.0638 8.08989 23.6865 8.16099 23.4622C8.23755 23.2326 8.39614 22.8552 8.51099 22.6146C8.62583 22.374 8.84458 21.9911 8.9977 21.7669C9.14536 21.5372 9.46255 21.149 9.69771 20.8974C9.93286 20.6458 10.3321 20.2794 10.5891 20.088C10.8461 19.8966 11.2891 19.6177 11.5735 19.4755C11.8579 19.3279 12.279 19.1419 12.5032 19.0599C12.7274 18.9833 13.1594 18.863 13.4602 18.8029C13.8594 18.7154 14.2149 18.688 14.7727 18.6826C15.2922 18.6826 15.6969 18.7154 16.0305 18.781C16.2985 18.8302 16.7196 18.9396 16.9602 19.0161C17.2008 19.0872 17.6055 19.2568 17.8625 19.3826C18.1196 19.5083 18.5243 19.7435 18.7649 19.9076C19.0055 20.0661 19.4485 20.449 19.7493 20.7497C20.05 21.056 20.4274 21.499 20.586 21.7396C20.7446 21.9802 20.9743 22.374 21.0891 22.6146C21.204 22.8552 21.3625 23.2326 21.4391 23.4622C21.5102 23.6865 21.6141 24.0638 21.6579 24.2935C21.7071 24.5286 21.7618 24.9279 21.7891 25.1904L21.8274 25.6552C23.5227 25.6169 23.7469 25.5951 24.0422 25.4966C24.2391 25.431 24.5563 25.2833 24.7477 25.1685C24.9391 25.0591 25.2454 24.813 25.4313 24.6271C25.6118 24.4466 25.8579 24.1349 25.9727 23.9435C26.0875 23.7521 26.2352 23.4349 26.3008 23.2435L26.4211 22.888C26.443 13.3669 26.4266 10.7966 26.3993 10.638C26.3719 10.4849 26.2899 10.2169 26.2243 10.0365C26.1586 9.85599 25.9727 9.5224 25.8196 9.29818C25.661 9.05755 25.404 8.77865 25.218 8.62552C25.0375 8.48333 23.0196 7.10521 20.7336 5.56302C18.4477 4.02083 16.4297 2.6974 16.2493 2.61536C16.0688 2.53333 15.7735 2.42943 15.593 2.38021C15.4071 2.33099 15.0571 2.29818 14.7727 2.29818C14.5047 2.30365 14.1438 2.34193 13.9797 2.38568C13.8157 2.42943 13.5313 2.53333 13.3508 2.61536ZM13.2415 21.2693C13.061 21.3349 12.7547 21.4771 12.5579 21.581C12.361 21.6904 12.0547 21.8927 11.8797 22.0294C11.7047 22.1716 11.4094 22.456 11.2344 22.6693C11.043 22.8935 10.7969 23.2763 10.6383 23.599C10.4907 23.8997 10.3321 24.2935 10.2829 24.474C10.2391 24.6544 10.1844 24.9935 10.1625 25.2232L10.1243 25.6497H19.4758C19.4157 24.9935 19.3446 24.6216 19.2844 24.4029C19.2243 24.1841 19.0821 23.8177 18.9618 23.5826C18.8469 23.3529 18.6063 22.9755 18.4258 22.7513C18.2508 22.5216 17.9446 22.2154 17.7477 22.0568C17.5563 21.9036 17.2118 21.6794 16.9875 21.5536C16.7633 21.4333 16.3532 21.2693 16.0852 21.1927C15.7188 21.0833 15.4344 21.0396 14.9641 21.0232C14.5594 21.0122 14.1985 21.0286 13.9524 21.0779C13.7446 21.1216 13.4219 21.2091 13.2415 21.2693ZM15.0461 8.18255C15.3141 8.19896 15.7243 8.25912 15.9485 8.3138C16.1727 8.37396 16.6157 8.54896 16.9329 8.70755C17.3868 8.93724 17.6 9.0849 17.961 9.4349C18.218 9.67552 18.5352 10.0419 18.6774 10.2552C18.8196 10.463 19.011 10.8185 19.104 11.0482C19.1969 11.2724 19.3172 11.6661 19.3719 11.9232C19.443 12.2732 19.454 12.5466 19.4321 13.0443C19.4157 13.4654 19.361 13.8427 19.2899 14.0943C19.2243 14.313 19.0821 14.6849 18.9618 14.9146C18.8469 15.1497 18.6063 15.5216 18.4258 15.7513C18.2508 15.9755 17.9446 16.2872 17.7477 16.4404C17.5563 16.5935 17.2118 16.8232 16.9875 16.9435C16.7633 17.0638 16.3532 17.2333 16.0852 17.3154C15.6477 17.4466 15.5055 17.463 14.8 17.463C14.0946 17.463 13.9524 17.4466 13.5149 17.3154C13.2469 17.2333 12.8368 17.0638 12.6125 16.9435C12.3883 16.8232 12.0438 16.5935 11.8524 16.4404C11.6555 16.2872 11.3493 15.9755 11.1743 15.7513C10.9938 15.5216 10.7477 15.1443 10.6274 14.9036C10.5071 14.663 10.354 14.231 10.2829 13.9466C10.1844 13.5638 10.1516 13.274 10.1516 12.8638C10.1516 12.5576 10.1899 12.1146 10.2391 11.8794C10.2883 11.6497 10.3977 11.2833 10.4852 11.0755C10.5672 10.8622 10.7422 10.5286 10.868 10.3372C10.9938 10.1404 11.2618 9.81224 11.4586 9.60443C11.6555 9.39662 11.9563 9.13958 12.1204 9.02474C12.2844 8.9099 12.5688 8.74583 12.7493 8.65287C12.9297 8.5599 13.2524 8.43412 13.4602 8.37396C13.6735 8.30833 14.0016 8.23177 14.1985 8.20443C14.3954 8.17708 14.7782 8.17162 15.0461 8.18255ZM13.6954 10.7802C13.5641 10.8458 13.3235 11.0372 13.154 11.2068C12.9899 11.3763 12.7875 11.6443 12.711 11.8138C12.629 11.9779 12.5415 12.2732 12.5032 12.4701C12.454 12.738 12.454 12.913 12.5032 13.181C12.536 13.3724 12.618 13.6568 12.6891 13.8099C12.7547 13.9576 12.9188 14.2036 13.05 14.3458C13.1868 14.4935 13.3946 14.6849 13.5149 14.7669C13.6352 14.849 13.8868 14.9693 14.0782 15.0349C14.286 15.106 14.5594 15.1497 14.7891 15.1497C14.9915 15.1497 15.2922 15.1115 15.4563 15.0622C15.6204 15.013 15.8555 14.9146 15.9758 14.8435C16.0961 14.7779 16.3258 14.581 16.4844 14.4115C16.6375 14.2474 16.829 13.9794 16.9 13.8208C16.9766 13.6622 17.0641 13.3724 17.0969 13.181C17.1461 12.913 17.1461 12.738 17.0969 12.4701C17.0586 12.2732 16.9711 11.9779 16.8891 11.8138C16.8125 11.6443 16.6102 11.3763 16.4461 11.2068C16.2766 11.0372 16.036 10.8458 15.9102 10.7802C15.779 10.7146 15.5329 10.6271 15.3633 10.5833C15.1883 10.5341 14.9258 10.5013 14.7727 10.5013C14.625 10.5068 14.368 10.5396 14.2149 10.5833C14.0563 10.6271 13.8211 10.7146 13.6954 10.7802Z" fill="#666870"/>
</g>
<defs>
<clipPath id="clip0_2122_10308">
<rect width="28" height="28" fill="white" transform="translate(0.800049)"/>
</clipPath>
</defs>
</svg>
