<svg width="29" height="28" viewBox="0 0 29 28" fill="none" xmlns="http://www.w3.org/2000/svg">
<path fill-rule="evenodd" clip-rule="evenodd" d="M14.3726 1.15497C14.903 1.1495 15.2202 1.17684 15.6304 1.26434C15.9312 1.3245 16.3905 1.45028 16.6585 1.53778C16.921 1.62528 17.3147 1.78387 17.528 1.89325C17.7468 2.00262 18.1132 2.2159 18.3374 2.36903C18.5616 2.52215 19.0101 2.90497 19.3272 3.22215C19.6444 3.53934 20.0272 3.98778 20.1804 4.212C20.3335 4.43622 20.5413 4.79715 20.6452 5.00497C20.7546 5.21278 20.9132 5.59559 21.0062 5.85262C21.0937 6.10965 21.214 6.52528 21.2687 6.78231C21.3452 7.12684 21.3726 7.47684 21.3726 8.1495C21.3726 8.79481 21.3452 9.17762 21.2796 9.48934C21.2249 9.72997 21.121 10.1237 21.039 10.3643C20.9569 10.605 20.7819 11.0261 20.6452 11.294C20.514 11.562 20.328 11.8956 20.2351 12.0323C20.1421 12.169 19.9179 12.4643 19.7319 12.6886C19.546 12.9128 19.2397 13.23 18.7202 13.6729L18.9499 13.7659C19.0812 13.8151 19.4421 13.9901 19.7593 14.1542C20.0765 14.3182 20.5304 14.5807 20.771 14.7339C21.0116 14.8925 21.3999 15.1714 21.6296 15.3573C21.8647 15.5432 22.2421 15.8768 22.4718 16.0901C22.7015 16.3089 23.0843 16.7245 23.3249 17.0089C23.5655 17.2932 23.9155 17.7636 24.1015 18.0479C24.2929 18.3323 24.5718 18.8026 24.7249 19.087C24.8726 19.3714 25.1132 19.8909 25.2499 20.2354C25.3866 20.58 25.5835 21.1979 25.6874 21.6026C25.7913 22.0073 25.9171 22.6472 25.9663 23.0245C26.021 23.4018 26.0702 24.1128 26.0866 24.6104C26.103 25.1682 26.0921 25.6276 26.0538 25.8136C26.021 25.9831 25.9226 26.2182 25.8296 26.344C25.7312 26.4917 25.5616 26.6339 25.1187 26.8526H3.68115L3.41865 26.7214C3.27646 26.6503 3.096 26.519 3.0085 26.4206C2.92646 26.3276 2.82256 26.1198 2.77881 25.9612C2.72412 25.7716 2.69678 25.4399 2.69678 24.9659C2.69678 24.5776 2.73506 23.9214 2.77881 23.5167C2.82256 23.112 2.89912 22.5706 2.94834 22.3136C2.99756 22.0565 3.11787 21.5643 3.21631 21.2198C3.31475 20.8753 3.52803 20.2847 3.69209 19.9073C3.85068 19.53 4.1624 18.9284 4.38115 18.5675C4.59443 18.2065 4.91162 17.7198 5.08662 17.4901C5.26162 17.2604 5.61162 16.8448 5.86865 16.5659C6.12568 16.287 6.56865 15.8659 6.85303 15.6253C7.1374 15.3847 7.646 15.0128 7.97412 14.794C8.30225 14.5753 8.82178 14.2745 9.12256 14.1214C9.42334 13.9682 9.7624 13.8097 10.0796 13.6729L9.7624 13.3886C9.59287 13.2354 9.31943 12.9565 9.15537 12.7761C8.99131 12.5901 8.74521 12.2675 8.60303 12.0597C8.46084 11.8464 8.25303 11.4964 8.14365 11.2776C8.03428 11.0643 7.87568 10.6706 7.78818 10.4026C7.70068 10.1401 7.58037 9.71903 7.52568 9.462C7.46006 9.1284 7.43272 8.75653 7.43272 8.1495C7.43272 7.54246 7.46006 7.17059 7.52568 6.837C7.58037 6.57997 7.68975 6.18621 7.76631 5.962C7.8374 5.73778 7.98506 5.3659 8.08897 5.14168C8.19834 4.91747 8.42256 4.52372 8.59209 4.26668C8.76162 4.00965 9.11162 3.58309 9.36865 3.32059C9.62568 3.05262 9.99209 2.71356 10.189 2.57137C10.3858 2.42372 10.714 2.20497 10.9272 2.08465C11.1405 1.95887 11.5562 1.762 11.8569 1.64715C12.1577 1.52684 12.6882 1.36825 13.0327 1.29715C13.4976 1.19872 13.8476 1.16043 14.3726 1.15497ZM12.8413 3.7745C12.6608 3.83465 12.3765 3.96043 12.2124 4.0534C12.0483 4.1409 11.7421 4.34325 11.5343 4.50184C11.321 4.65497 11.0093 4.96122 10.8343 5.16903C10.6593 5.37684 10.4077 5.75965 10.2765 6.01668C10.1397 6.27372 9.98115 6.66747 9.91553 6.89168C9.83896 7.15965 9.78428 7.52606 9.76787 7.95809C9.746 8.45575 9.75693 8.72372 9.82803 9.07918C9.88271 9.33622 9.99756 9.71903 10.0796 9.92684C10.1671 10.1347 10.3421 10.4682 10.4679 10.6651C10.5882 10.862 10.8562 11.1901 11.053 11.3925C11.2554 11.6003 11.5671 11.8682 11.7476 11.994C11.928 12.1143 12.2452 12.3003 12.4585 12.3987C12.6718 12.4972 13.0382 12.6284 13.2788 12.694C13.6179 12.7815 13.8749 12.8089 14.3999 12.8089C14.9194 12.8089 15.1874 12.7815 15.521 12.694C15.7616 12.6284 16.128 12.4972 16.3413 12.3987C16.5546 12.3003 16.8718 12.1143 17.0522 11.994C17.2327 11.8737 17.5444 11.6003 17.7413 11.3979C17.9382 11.1901 18.1733 10.9112 18.2663 10.7745C18.3593 10.6378 18.496 10.4026 18.5671 10.255C18.6437 10.1018 18.7749 9.77372 18.8624 9.51668C19.0046 9.09012 19.0155 8.98075 19.0155 8.20418C19.021 7.47137 19.0046 7.29637 18.8952 6.91903C18.8241 6.6784 18.6601 6.27372 18.5288 6.01668C18.3921 5.75965 18.1569 5.39325 17.9929 5.19637C17.8343 4.9995 17.5444 4.71512 17.3476 4.562C17.1562 4.4034 16.8116 4.17918 16.5874 4.05887C16.3632 3.93309 15.9585 3.76903 15.6851 3.69247C15.3187 3.58309 15.0343 3.53934 14.564 3.52293C14.1593 3.512 13.7983 3.5284 13.5522 3.57762C13.339 3.62137 13.0218 3.70887 12.8413 3.7745ZM12.5132 15.3682C12.2124 15.4284 11.7202 15.5651 11.4194 15.6636C11.1187 15.7675 10.6374 15.9589 10.353 16.0956C10.0687 16.2323 9.57646 16.5167 9.25928 16.7245C8.94209 16.9323 8.47725 17.2878 8.22568 17.5065C7.96865 17.7307 7.59131 18.1081 7.3835 18.3487C7.17568 18.5893 6.83115 19.0432 6.62334 19.3604C6.41006 19.6776 6.13115 20.1589 6.00537 20.4268C5.87412 20.6948 5.67725 21.1761 5.57334 21.4932C5.46943 21.8104 5.33271 22.3026 5.27256 22.587C5.2124 22.8714 5.13584 23.3909 5.10303 23.7354C5.07568 24.08 5.04834 24.3972 5.04834 24.4354C5.04834 24.4847 6.95693 24.5011 14.3999 24.5011H23.7515C23.7022 23.8011 23.664 23.4128 23.6366 23.1886C23.6038 22.9643 23.5218 22.5432 23.4507 22.2589C23.3796 21.9745 23.2429 21.5151 23.1444 21.2472C23.046 20.9792 22.8437 20.5198 22.696 20.2354C22.5483 19.9511 22.2858 19.5081 22.1108 19.2511C21.9358 18.994 21.6132 18.5784 21.389 18.3268C21.1702 18.0698 20.7929 17.6925 20.5522 17.4847C20.3116 17.2768 19.8577 16.9323 19.5405 16.7245C19.2233 16.5112 18.7476 16.2323 18.4741 16.1011C18.2007 15.9753 17.6866 15.7675 17.3257 15.6472C16.9647 15.5268 16.3851 15.3792 16.0405 15.319C15.696 15.2589 15.1054 15.1987 14.728 15.1878C14.3507 15.1714 13.8257 15.1768 13.5522 15.2042C13.2788 15.2315 12.814 15.3026 12.5132 15.3682Z" fill="#666870"/>
</svg>
