<svg width="376" height="246" viewBox="0 0 376 246" fill="none" xmlns="http://www.w3.org/2000/svg">
<path opacity="0.28" d="M371.776 220.479C358.15 202.706 226.938 212.386 146.904 213.173C108.767 213.543 5.79598 214.914 1.35649 220.911C-26.6986 258.631 393.85 249.274 371.776 220.479Z" fill="url(#paint0_linear_4_110)"/>
<g opacity="0.67">
<path opacity="0.17" d="M347.529 174.651C347.205 183.314 341.594 191.7 327.227 196.786C317.531 200.209 299.265 195.97 288.752 196.602C227.817 200.317 166.897 204.016 105.977 207.731C87.0323 208.887 67.3938 209.966 49.6512 204.556C32.7257 199.392 18.6673 188.277 11.7306 174.574C8.29307 167.791 6.61285 159.929 10.0195 153.085C15.091 142.911 29.319 138.225 38.0284 129.855C48.0481 120.236 49.867 106.301 46.6916 93.9692C43.5161 81.6373 36.009 70.4461 29.0107 59.2703C25.8044 54.1679 22.6597 48.9269 21.627 43.2234C20.6096 37.5353 22.0432 31.2306 26.9913 27.1302C34.3134 21.0413 46.6607 21.6425 56.1717 25.003C57.8365 25.5887 59.4705 26.2516 61.0428 26.9761C70.0297 31.1072 81.4521 28.2863 86.3232 20.7639C89.2212 16.2935 93.2291 12.2857 98.054 9.17186C111.311 0.616596 129.516 -1.64939 145.948 1.12529C162.38 3.89997 177.179 11.2837 189.88 20.2398C196.756 25.08 203.184 30.4752 210.999 34.2211C218.814 37.9823 228.526 39.9554 237.081 37.3349C249.937 33.4041 255.702 20.9797 266.94 14.49C276.235 9.1102 289.229 8.47819 299.157 12.9023C309.084 17.3263 315.45 26.6215 314.957 35.9321C314.464 45.0886 307.974 54.3067 311.504 62.9698C315.712 73.2978 331.143 76.5041 344.184 78.4464C357.225 80.3887 372.67 84.4736 375.553 95.1099C378.435 105.715 366.658 115.026 355.606 121.069C344.553 127.111 331.636 134.14 330.572 144.992C329.694 154.18 347.852 165.448 347.529 174.651Z" fill="url(#paint1_linear_4_110)"/>
<path d="M356.207 88.204C353.186 86.7858 349.856 85.7839 346.434 85.9072C343.012 86.0151 339.513 87.3562 337.355 89.8996C334.241 93.5992 334.595 98.7478 335.104 103.357C335.489 106.841 336.291 110.895 339.667 112.344C342.072 113.377 344.923 112.637 347.498 111.897C351.567 110.725 355.745 109.492 359.151 107.041C362.543 104.59 365.04 100.582 364.331 96.6822C363.622 92.7514 359.984 89.9613 356.207 88.204Z" fill="white"/>
</g>
<path d="M128.097 25.727H18.6663V221.712H128.097V25.727Z" fill="#FCC7E0"/>
<path d="M127.541 26.0816H19.2364V221.697H127.541V26.0816Z" fill="url(#paint2_linear_4_110)"/>
<path d="M117.876 33.2958H28.0384V221.697H117.876V33.2958Z" fill="#FCE8F1"/>
<path d="M145.053 92.7047C144.914 92.7047 142.71 95.3253 142.54 95.6952C140.891 99.2715 147.088 110.093 153.377 115.935C160.16 122.24 173.678 118.833 178.149 116.983C180.153 116.151 179.582 117.415 183.112 115.072C184.238 114.332 183.667 109.368 180.8 110.679C178.195 111.865 178.873 112.991 176.453 113.469C174.033 113.946 161.686 115.133 159.574 112.436C156.321 108.258 152.837 100.058 151.789 98.1308C150.756 96.2039 148.706 92.6431 145.053 92.7047Z" fill="url(#paint3_linear_4_110)"/>
<path d="M147.812 77.5211C147.812 77.5211 144.452 90.3 131.411 86.8471C121.977 84.3499 122.177 88.9127 116.643 90.1305C115.41 90.4079 103.248 89.2518 104.774 75.5326C105.436 73.2666 106.392 72.2646 112.959 74.7464C117.553 76.4883 119.741 74.2531 121.406 72.7887C129.083 65.9753 133.06 62.6765 141.569 64.0485C148.506 65.1738 149.662 72.28 147.812 77.5211Z" fill="#312F30"/>
<path d="M145.777 108.212C145.777 108.212 135.156 99.2407 142.263 92.3656C148.321 86.508 154.055 100.428 154.055 100.428C154.055 100.428 151.542 105.73 145.777 108.212Z" fill="url(#paint4_linear_4_110)"/>
<path d="M96.8044 211.091C96.8044 211.091 116.998 188.138 115.842 157.601C115.056 136.745 113.422 121.068 125.707 124.305C142.587 129.469 137.993 143.42 129.499 170.38C119.511 202.058 99.1783 213.388 99.1783 213.388C99.1783 213.388 102.539 219.338 100.458 218.906C99.4557 218.691 95.9411 216.055 95.1858 213.789C94.4459 211.523 96.8044 211.091 96.8044 211.091Z" fill="url(#paint5_linear_4_110)"/>
<path d="M130.64 217.55C130.64 217.55 143.172 189.202 133.014 160.376C126.077 140.691 115.888 127.573 128.574 127.018C146.225 126.941 149.955 140.26 149.847 168.515C149.708 201.734 133.245 217.858 133.245 217.858L130.64 217.55Z" fill="url(#paint6_linear_4_110)"/>
<path d="M140.12 74.3148C140.12 74.3148 136.975 87.325 134.571 88.0803C131.349 89.0977 128.312 89.6064 127.634 91.9648C126.956 94.3233 122.717 119.388 123.287 123.319C123.857 127.25 139.796 130.517 141.137 128.606C142.494 126.695 148.629 96.9284 147.889 94.3541C147.134 91.7953 143.172 90.9166 142.109 87.957C141.045 84.9973 144.991 73.7444 144.991 73.7444L140.12 74.3148Z" fill="url(#paint7_linear_4_110)"/>
<path d="M142.263 128.436C142.263 128.436 152.529 143.605 151.25 172.446C150.093 172.03 133.615 172.569 112.142 171.891C111.078 170.982 111.71 138.24 116.504 129.176C116.212 130.225 142.263 128.436 142.263 128.436Z" fill="url(#paint8_linear_4_110)"/>
<path d="M148.336 92.751C147.273 91.117 144.529 90.2538 144.498 90.3155C139.781 97.6992 133.029 88.4657 133.029 88.4657C132.166 87.8182 125.538 89.3906 125.229 90.2538C124.967 94.6008 124.073 102.709 121.483 108.983C116.998 116.844 115.641 122.702 114.192 132.121C113.344 137.685 144.529 137.47 145.669 133.647C147.766 126.633 145.145 121.993 148.814 108.875C151.373 99.7956 149.646 94.7704 148.336 92.751Z" fill="url(#paint9_linear_4_110)"/>
<path d="M139.843 67.1623C139.442 67.4089 135.218 69.6132 134.663 74.7002C134.602 74.6539 134.525 74.6077 134.432 74.5923C132.382 74.3456 133.785 77.8756 133.985 78.261C134.201 78.6618 134.602 78.708 134.941 78.5693C135.08 79.1705 135.264 79.8025 135.511 80.4653C137.053 85.1206 142.91 86.7546 145.901 80.2803C148.799 74.0373 145.654 63.509 139.843 67.1623Z" fill="url(#paint10_linear_4_110)"/>
<path d="M146.363 79.0163C146.363 79.0163 147.55 75.9334 145.007 73.2512C144.775 73.0045 143.743 77.2282 138.286 78.4614C133.492 79.5404 135.542 85.1823 135.542 85.1823C135.542 85.1823 132.89 80.3574 131.734 80.8199C130.578 81.2823 131.611 69.937 134.725 67.486C137.839 65.035 143.188 65.1738 145.361 67.2085C148.197 69.8599 148.645 75.81 146.363 79.0163Z" fill="#312F30"/>
<path d="M129.129 94.8782C129.129 94.7241 126.385 92.5506 126.016 92.3965C122.316 90.8087 111.433 97.2984 105.606 103.865C99.3323 110.956 103.186 124.814 105.175 129.331C106.069 131.365 104.774 130.81 107.256 134.356C108.042 135.481 113.098 134.772 111.695 131.889C110.416 129.269 109.29 129.978 108.735 127.527C108.18 125.076 106.654 112.467 109.352 110.262C113.529 106.84 121.838 103.064 123.765 101.938C125.692 100.798 129.299 98.6087 129.129 94.8782Z" fill="url(#paint11_linear_4_110)"/>
<path d="M114.208 94.4158C114.208 94.4158 126.694 84.6119 131.334 90.9783C135.403 96.5739 120.79 105.237 120.79 105.237C120.79 105.237 115.826 99.9343 114.208 94.4158Z" fill="url(#paint12_linear_4_110)"/>
<path d="M134.216 216.81C134.216 216.81 141.43 218.583 141.8 220.17C142.402 222.714 131.642 221.619 130.363 220.201C129.129 218.845 130.748 217.026 130.748 217.026C130.748 217.026 132.027 218.352 134.216 216.81Z" fill="#E81478"/>
<path d="M134.787 217.195C134.787 217.195 134.047 217.766 133.769 218.475C133.754 218.937 135.804 216.995 134.787 217.195Z" fill="#B66CB6"/>
<path d="M136.267 217.704C136.267 217.704 135.527 218.274 135.265 218.984C135.234 219.446 137.269 217.519 136.267 217.704Z" fill="#B66CB6"/>
<path d="M137.654 218.089C137.654 218.089 137.022 218.583 136.806 219.215C136.791 219.646 138.517 217.935 137.654 218.089Z" fill="#B66CB6"/>
<path d="M99.3016 213.496C99.3016 213.496 102.893 220.001 101.984 221.357C100.535 223.516 94.0297 214.883 94.1993 212.972C94.3688 211.137 96.789 211.107 96.789 211.107C96.789 211.107 96.6965 212.941 99.3016 213.496Z" fill="#E81478"/>
<path d="M99.4094 214.174C99.4094 214.174 98.4845 214.02 97.7754 214.297C97.4209 214.606 100.242 214.791 99.4094 214.174Z" fill="#B66CB6"/>
<path d="M100.041 215.608C100.041 215.608 99.132 215.454 98.4229 215.731C98.0529 216.039 100.858 216.224 100.041 215.608Z" fill="#B66CB6"/>
<path d="M100.689 216.887C100.689 216.887 99.9027 216.764 99.2861 217.026C98.9624 217.303 101.398 217.427 100.689 216.887Z" fill="#B66CB6"/>
<path d="M179.412 118.047C181.17 119.527 183.79 119.311 185.27 117.554C186.75 115.796 186.534 113.176 184.777 111.696C183.019 110.216 180.399 110.432 178.919 112.189C177.439 113.931 177.655 116.567 179.412 118.047ZM184.623 111.881C186.272 113.284 186.472 115.75 185.085 117.399C183.682 119.049 181.216 119.249 179.567 117.862C177.917 116.459 177.717 113.993 179.104 112.343C180.507 110.694 182.973 110.478 184.623 111.881Z" fill="white"/>
<path d="M186.18 137.146L184.176 137.516L182.018 125.723L184.021 125.353L186.18 137.146Z" fill="url(#paint13_linear_4_110)"/>
<path d="M184.592 133.6L184.638 132.845L184.869 132.861L184.839 132.706L184.469 132.753L184.345 132.013L184.715 131.951L184.607 131.396L184.022 131.473L183.852 130.363L184.407 130.286L184.237 129.392L183.76 129.346L183.852 128.221L184.022 128.236L183.975 127.943L183.528 128.02L183.436 127.465L183.867 127.388L183.775 126.88L183.42 126.941L183.313 126.402L183.682 126.325L183.513 125.446L182.511 125.631L184.669 137.423L185.671 137.238L185.579 136.73L185.024 136.498L185.301 135.805L185.424 135.851L185.347 135.481L184.9 135.589L184.715 134.849L185.209 134.726L185.008 133.631L184.592 133.6Z" fill="url(#paint14_linear_4_110)"/>
<path d="M184.053 116.922C182.357 117.199 180.677 117.507 178.996 117.846C178.226 118.001 177.609 118.633 177.779 119.28C178.334 121.376 178.889 123.473 179.443 125.569C179.582 126.14 180.276 126.617 181.016 126.494C182.434 126.263 183.837 126.001 185.239 125.723C185.979 125.585 186.442 124.876 186.38 124.305C186.149 122.147 185.933 119.989 185.702 117.831C185.625 117.168 184.823 116.783 184.053 116.922ZM183.821 119.064C183.775 119.265 183.374 119.311 183.189 119.342C182.773 119.419 182.341 119.465 181.925 119.542C181.509 119.619 181.093 119.727 180.677 119.804C180.492 119.835 180.106 119.943 179.983 119.773C179.844 119.588 180.183 119.265 180.322 119.141C180.723 118.802 181.232 118.602 181.74 118.509C182.249 118.417 182.789 118.432 183.297 118.602C183.451 118.648 183.868 118.833 183.821 119.064Z" fill="#3E3E3E"/>
<path d="M180.492 119.835C180.291 119.866 180.045 119.897 179.937 119.758C179.767 119.527 180.152 119.172 180.276 119.064C180.754 118.663 181.324 118.494 181.709 118.417C182.11 118.34 182.696 118.309 183.282 118.509C183.467 118.586 183.914 118.771 183.852 119.033C183.806 119.203 183.559 119.265 183.359 119.311C183.312 119.311 183.282 119.326 183.251 119.326C183.235 119.326 183.205 119.326 183.189 119.342C182.989 119.373 182.788 119.403 182.603 119.434C182.388 119.465 182.156 119.496 181.925 119.542C181.709 119.588 181.478 119.635 181.262 119.681C181.077 119.727 180.877 119.773 180.677 119.804C180.661 119.804 180.63 119.82 180.615 119.82C180.569 119.82 180.538 119.835 180.492 119.835ZM181.74 118.509C181.355 118.586 180.8 118.741 180.337 119.141C180.122 119.326 179.921 119.573 180.014 119.712C180.106 119.835 180.384 119.773 180.476 119.758C180.522 119.758 180.553 119.742 180.584 119.742C180.615 119.742 180.63 119.727 180.646 119.727C180.846 119.696 181.046 119.65 181.231 119.604C181.447 119.557 181.679 119.511 181.894 119.465C182.11 119.419 182.341 119.388 182.573 119.357C182.773 119.326 182.973 119.295 183.158 119.265C183.174 119.265 183.205 119.265 183.22 119.249C183.251 119.249 183.297 119.234 183.328 119.234C183.42 119.218 183.713 119.157 183.744 119.018C183.79 118.864 183.497 118.694 183.235 118.602C182.696 118.401 182.126 118.432 181.74 118.509Z" fill="#3E3E3E"/>
<path d="M178.441 112.898C177.362 114.918 178.118 117.446 180.137 118.525C182.156 119.604 184.684 118.848 185.763 116.829C186.842 114.81 186.087 112.282 184.068 111.203C182.048 110.124 179.52 110.879 178.441 112.898ZM185.548 116.721C184.53 118.633 182.156 119.342 180.245 118.324C178.333 117.307 177.624 114.933 178.642 113.022C179.659 111.11 182.033 110.401 183.944 111.418C185.856 112.436 186.565 114.81 185.548 116.721Z" fill="url(#paint15_linear_4_110)"/>
<path d="M182.449 124.29C183.309 124.29 184.006 123.593 184.006 122.733C184.006 121.873 183.309 121.176 182.449 121.176C181.589 121.176 180.892 121.873 180.892 122.733C180.892 123.593 181.589 124.29 182.449 124.29Z" fill="url(#paint16_linear_4_110)"/>
<path d="M184.931 117.076C184.746 117.307 184.484 117.507 184.207 117.661C184.114 117.769 184.006 117.862 183.914 117.954C183.806 118.062 183.682 118.155 183.559 118.232C183.467 118.293 183.359 118.34 183.266 118.401C183.235 118.417 183.22 118.432 183.189 118.448C183.189 118.463 183.189 118.478 183.189 118.494C183.189 118.509 183.205 118.54 183.205 118.556C183.235 118.571 183.251 118.571 183.282 118.586C183.39 118.633 183.59 118.71 183.713 118.833C183.852 118.771 183.96 118.648 184.083 118.586C184.237 118.494 184.391 118.401 184.53 118.293C184.669 118.186 184.823 118.078 184.977 117.985C184.977 117.985 184.993 117.985 184.993 117.97C185.024 117.939 185.039 117.924 185.07 117.893C185.131 117.831 185.178 117.769 185.224 117.692C185.316 117.584 185.44 117.523 185.563 117.492C185.44 117.276 185.224 117.107 184.962 116.999C184.962 117.029 184.946 117.06 184.931 117.076Z" fill="#3E3E3E"/>
<path d="M183.698 118.848C183.698 118.833 183.698 118.833 183.698 118.848C183.729 118.833 183.76 118.818 183.775 118.802C183.652 118.663 183.42 118.571 183.297 118.525C183.266 118.509 183.235 118.494 183.189 118.494V118.509C183.189 118.54 183.205 118.571 183.205 118.586C183.22 118.586 183.235 118.602 183.251 118.602C183.42 118.663 183.59 118.74 183.698 118.848Z" fill="#3E3E3E"/>
<path d="M100.812 33.2957H31.4758V221.697H100.812V33.2957Z" fill="#A4376A"/>
<path d="M97.3744 33.2958H28.0382V221.697H97.3744V33.2958Z" fill="url(#paint17_linear_4_110)"/>
<path d="M84.8575 145.454H41.1254V194.69H84.8575V145.454Z" fill="#A4376A"/>
<path d="M81.2658 149.293H44.7171V190.867H81.2658V149.293Z" fill="url(#paint18_linear_4_110)"/>
<path d="M84.8575 57.5126H41.1254V106.748H84.8575V57.5126Z" fill="#A4376A"/>
<path d="M81.2658 61.3509H44.7171V102.925H81.2658V61.3509Z" fill="url(#paint19_linear_4_110)"/>
<path d="M92.6883 115.858C91.7017 115.858 90.9002 116.922 90.9002 118.247V131.966C90.9002 133.292 91.7017 134.356 92.6883 134.356C93.6748 134.356 94.4764 133.292 94.4764 131.966V118.247C94.4764 116.922 93.6748 115.858 92.6883 115.858Z" fill="url(#paint20_linear_4_110)"/>
<path opacity="0.38" d="M83.5472 126.402C83.7476 127.111 84.21 127.542 84.8112 127.342C86.0598 126.309 85.3661 126.109 89.4357 126.217C89.744 126.217 90.0368 126.217 90.3297 126.217C91.455 126.217 92.3028 126.217 92.3028 126.217C93.0427 126.217 93.6285 125.77 93.6285 125.215C93.6285 124.66 93.0273 124.213 92.3028 124.213C92.3028 124.213 91.4396 124.213 90.2989 124.213C90.006 124.213 89.7131 124.228 89.4048 124.213C86.0598 124.089 85.5357 124.274 83.6088 125.908C83.5318 126.078 83.5163 126.232 83.5472 126.402Z" fill="#282829"/>
<path d="M83.5472 125.708C83.7476 126.417 84.21 126.849 84.8112 126.648C86.0598 125.616 85.3661 125.415 89.4357 125.523C89.744 125.523 90.0368 125.523 90.3297 125.523C91.455 125.523 92.3028 125.523 92.3028 125.523C93.0427 125.523 93.6285 125.076 93.6285 124.521C93.6285 123.966 93.0273 123.535 92.3028 123.535C92.3028 123.535 91.4396 123.535 90.2989 123.535C90.006 123.535 89.7131 123.55 89.4048 123.535C86.0598 123.411 85.5357 123.596 83.6088 125.23C83.5318 125.384 83.5163 125.554 83.5472 125.708Z" fill="white"/>
<path d="M93.5667 132.013C93.5667 132.521 93.1659 132.922 92.6572 132.922C92.1486 132.922 91.7478 132.506 91.7478 132.013C91.7478 131.504 92.1486 131.103 92.6572 131.103C93.1659 131.103 93.5667 131.504 93.5667 132.013Z" fill="#FCFEFC"/>
<path d="M100.041 123.165H98.207V132.922H100.041V123.165Z" fill="white"/>
<path d="M99.5018 130.625H98.731V132.367H99.5018V130.625Z" fill="url(#paint21_linear_4_110)"/>
<path d="M99.44 124.089H98.7772V128.529H99.44V124.089Z" fill="url(#paint22_linear_4_110)"/>
<path d="M212.847 210.891L212.184 219.739C212.184 219.739 213.88 221.034 212.369 222.514C210.859 223.993 206.327 222.437 205.448 222.205C203.629 221.712 209.379 220.587 209.379 220.587L209.225 210.243L212.847 210.891Z" fill="url(#paint23_linear_4_110)"/>
<path d="M237.08 211.708L238.714 220.309C238.714 220.309 240.348 221.681 238.775 223.099C237.203 224.518 232.733 222.76 231.869 222.498C230.066 221.928 235.862 221.049 235.862 221.049L233.642 210.999L237.08 211.708Z" fill="url(#paint24_linear_4_110)"/>
<path d="M233.796 130.009C235.538 129.778 241.797 135.851 238.066 146.564C237.989 146.765 239.777 153.054 234.583 175.529C233.827 178.766 239.531 181.371 238.159 212.047C237.018 212.463 234.166 212.864 232.563 212.864C231.977 212.864 226.089 190.898 224.301 181.525C221.711 167.991 219.861 142.649 219.63 140.121C219.199 135.497 231.87 130.271 233.796 130.009Z" fill="#313336"/>
<path d="M227.969 133.061C229.681 133.493 233.765 141.323 229.049 147.536C229.033 147.551 225.626 163.721 218.859 176.87C217.441 179.645 222.744 181.602 213.819 212.201C211.568 212.324 211.044 212.232 208.701 211.708C208.377 211.631 207.375 188.293 207.683 178.643C208.146 164.708 211.861 139.782 212.185 137.285C212.77 132.737 226.058 132.583 227.969 133.061Z" fill="#232930"/>
<path d="M238.452 217.288L239.053 221.311C239.053 221.311 235.6 220.926 235.631 220.479C235.662 220.016 234.968 217.612 234.968 217.612C234.968 217.612 238.113 217.226 238.452 217.288Z" fill="url(#paint25_linear_4_110)"/>
<path d="M212.647 216.995L212.447 221.049C212.447 221.049 208.947 220.14 209.071 219.693C209.194 219.246 209.194 216.548 209.194 216.548C209.194 216.548 212.323 216.856 212.647 216.995Z" fill="url(#paint26_linear_4_110)"/>
<path d="M235.538 220.232C235.538 220.232 230.698 219.847 229.958 221.219C228.771 223.438 237.789 225.15 239.284 224.101C241.334 222.652 239.099 220.525 239.099 220.525C239.099 220.525 237.403 221.28 235.538 220.232Z" fill="#3E3E3E"/>
<path d="M209.148 219.323C209.148 219.323 204.431 219.523 203.768 220.88C202.735 223.038 211.445 224.317 212.847 223.254C214.743 221.789 212.524 219.847 212.524 219.847C212.524 219.847 210.982 220.248 209.148 219.323Z" fill="#3E3E3E"/>
<path d="M233.056 93.568C233.056 93.568 231.777 92.304 230.343 89.4368C230.143 89.0515 226.628 78.4923 225.503 78.0761C224.193 77.5982 222.775 76.5808 221.603 77.0124C221.033 77.2283 223.222 80.8816 222.944 87.4175C222.744 92.2115 218.643 95.0016 218.073 96.3735C216.716 99.6415 229.634 98.732 233.056 93.568Z" fill="url(#paint27_linear_4_110)"/>
<path d="M231.962 91.0708C231.962 91.0708 238.143 95.9265 238.452 109.754C238.76 124.182 236.016 127.82 237.187 141.123C237.234 146.534 219.167 148.861 211.229 137.948C210.52 136.976 216.131 129.562 215.052 121.222C213.048 105.962 210.581 105.576 218.875 94.1384C219.907 92.7202 226.058 88.2961 231.962 91.0708Z" fill="url(#paint28_linear_4_110)"/>
<path d="M225.518 93.2135C225.518 93.2135 232.486 97.2984 235.106 103.958C235.862 104.96 239.561 101.661 239.561 101.661C239.561 101.661 228.971 87.9878 220.154 93.2135C211.337 98.4391 219.075 132.336 228.755 142.341C229.141 141.138 229.572 136.791 229.572 136.791C229.572 136.791 215.16 106.563 218.073 97.3755C219.784 91.9649 225.518 93.2135 225.518 93.2135Z" fill="url(#paint29_linear_4_110)"/>
<path d="M246.575 106.439C244.71 105.545 244.448 102.216 242.074 99.5798C238.359 95.4486 234.737 97.2059 234.552 101.846C233.457 129.531 224.147 135.173 227.723 141.154C231.299 147.135 242.305 145.871 246.606 142.51C249.165 140.506 254.976 127.08 251.97 122.718C248.965 118.355 252.171 109.106 246.575 106.439Z" fill="#2C4771"/>
<path d="M226.983 98.0229C226.983 98.0229 229.326 118.617 223.468 124.274C215.083 132.383 200.269 127.851 200.269 127.851C200.269 127.851 194.874 127.126 194.149 125.323C193.44 123.519 194.827 123.226 195.598 123.627C197.818 124.799 199.899 123.704 201.764 124.167C208.793 125.939 216.378 122.116 217.487 120.328C219.106 117.708 220.339 105.869 219.769 103.264C218.643 98.1 223.299 95.6953 226.983 98.0229Z" fill="url(#paint30_linear_4_110)"/>
<path d="M218.798 107.519C218.798 107.519 223.037 109.769 229.388 108.397C229.311 108.598 231.037 99.7494 225.38 93.7068C218.474 90.8242 216.609 98.732 218.798 107.519Z" fill="url(#paint31_linear_4_110)"/>
<path d="M227.507 67.6864C228.046 68.1643 235.985 73.8215 230.929 84.2574C229.881 87.1708 220.878 90.3617 218.905 82.2843C216.948 74.2994 221.449 62.4454 227.507 67.6864Z" fill="url(#paint32_linear_4_110)"/>
<path d="M228.463 79.9567C228.725 79.1397 229.249 77.8757 228.34 77.0124C227.369 76.1029 226.32 78.5539 226.32 78.5539C226.32 78.5539 220.139 77.3207 220.416 72.203C220.416 72.0026 219.754 72.1105 219.245 74.6848C218.628 74.9314 216.177 68.4417 224.933 65.59C228.463 65.0813 232.64 65.3896 235.985 70.2607C237.604 72.465 237.357 75.8101 236.833 78.3843C236.17 81.5906 233.257 85.9993 229.927 85.691C229.511 85.6602 228.17 80.897 228.463 79.9567Z" fill="#3E3E3E"/>
<path d="M218.597 71.8176C218.597 71.8176 218.32 77.0432 222.343 79.3863C226.366 81.7294 227.877 81.529 227.723 84.2728C227.738 84.3345 228.802 81.791 225.719 80.0492C221.85 77.8602 220.694 76.4267 221.372 72.0026C222.035 67.5939 218.597 71.8176 218.597 71.8176Z" fill="#3E3E3E"/>
<path d="M240.455 78.5231C244.756 79.6484 246.19 82.9626 246.113 90.4388C246.051 96.9593 256.441 99.7031 255.099 96.019C253.758 92.3348 251.939 96.4968 251.847 96.1269C251.708 95.5257 253.065 90.7163 257.042 94.3542C260.325 97.3601 257.705 103.773 252.741 104.913C247.777 106.054 236.031 103.788 236.525 96.6972C236.972 90.485 240.024 83.3942 234.305 82.4385C233.719 82.346 234.104 82.3922 234.058 82.161C234.074 82.1764 233.873 76.7966 240.455 78.5231Z" fill="#3E3E3E"/>
<path d="M242.752 77.8911C247.5 81.0665 248.471 82.0531 247.777 85.9685C247.084 89.8684 245.157 95.0941 249.905 97.0209C248.964 97.0672 244.849 94.6008 246.56 87.2325C248.147 80.3729 242.259 78.0606 240.101 77.8911C237.943 77.7215 234.659 79.8796 234.258 80.527C234.258 80.527 232.825 80.9895 233.858 79.7254C236.339 76.7349 240.162 76.1646 242.752 77.8911Z" fill="#3E3E3E"/>
<path d="M268.68 224.286C269.204 226.028 268.248 227.924 266.522 228.541C264.795 229.157 262.976 228.233 262.437 226.506C261.897 224.764 262.868 222.868 264.595 222.252C266.321 221.65 268.156 222.56 268.68 224.286Z" fill="#4A4A4A"/>
<path d="M271.301 132.167C271.223 131.196 271.285 130.225 271.393 129.253L269.667 130.148C269.235 130.363 268.957 130.81 268.927 131.288L266.707 176.284C266.676 177.009 267.216 177.595 267.909 177.595C268.063 177.595 268.218 177.564 268.356 177.517C268.85 177.348 269.22 176.87 269.25 176.3L271.408 132.568C271.347 132.46 271.316 132.336 271.301 132.167Z" fill="#E2E2E2"/>
<path d="M276.141 127.496C275.771 127.265 275.293 127.234 274.892 127.45L273.489 128.174C273.366 129.176 273.258 130.163 273.258 131.165L274.06 130.749L272.148 173.171C272.117 173.895 272.657 174.481 273.366 174.481C274.075 174.481 274.661 173.91 274.692 173.186L276.711 128.606C276.726 128.159 276.511 127.743 276.141 127.496Z" fill="#DBDBDB"/>
<path d="M274.954 223.855C275.571 225.889 274.445 228.109 272.441 228.834C270.422 229.543 268.295 228.479 267.663 226.444C267.046 224.41 268.171 222.19 270.175 221.465C272.195 220.756 274.337 221.82 274.954 223.855Z" fill="#4A4A4A"/>
<path d="M250.429 178.15C250.197 185.795 249.565 210.937 250.86 222.02C250.891 222.236 250.876 222.437 250.86 222.652C250.629 227.554 262.236 229.065 271.362 225.319C273.489 224.44 272.842 188.632 275.015 173.479C275.509 170.072 275.725 165.556 272.441 165.602C270.53 165.633 256.256 170.226 252.232 174.08C251.122 175.113 250.475 176.593 250.429 178.15Z" fill="#3E3E3E"/>
<path d="M264.641 170.026L262.992 223.654C262.93 225.689 264.703 227.215 266.584 226.753L274.491 224.749C275.863 224.41 276.819 223.084 276.773 221.604L275.355 168.577C275.293 166.573 273.505 165.17 271.686 165.694L266.846 167.082C265.582 167.452 264.687 168.639 264.641 170.026Z" fill="#2E2E2F"/>
<path d="M276.31 130.379C276.279 130.394 276.249 130.41 276.218 130.425L269.743 133.585C268.911 133.986 267.94 133.647 267.57 132.799C267.2 131.966 267.585 130.949 268.418 130.548L274.892 127.388C275.724 126.987 276.696 127.327 277.066 128.174C277.405 128.976 277.065 129.932 276.31 130.379Z" fill="url(#paint33_linear_4_110)"/>
<path d="M335.935 156.106L321.908 156.646C320.536 156.692 319.457 157.833 319.488 159.205L319.827 180.724C319.857 182.188 321.106 183.329 322.57 183.19L338.694 181.772C340.113 181.649 341.145 180.369 340.976 178.967L338.525 158.326C338.386 157.031 337.261 156.06 335.935 156.106Z" fill="#3E3E3E"/>
<path d="M327.858 143.99C328.32 144.144 329.369 148.291 330.509 149.509C331.835 150.911 332.421 152.931 331.881 153.624C330.864 154.919 327.149 157.108 326.085 154.873C325.592 153.856 325.777 152.098 325.684 150.603C325.592 148.83 323.11 144.021 323.11 144.021L327.858 143.99Z" fill="url(#paint34_linear_4_110)"/>
<path d="M293.036 92.2269C293.036 92.2269 291.525 92.8743 291.402 95.8186C291.155 97.0518 289.028 132.783 288.843 132.783C288.658 132.783 289.953 135.574 289.953 135.574L293.036 92.2269Z" fill="#3E3E3E"/>
<path d="M298.863 93.2135C298.863 93.2135 303.734 89.2673 307.557 93.5218C311.379 97.7763 322.648 110.016 329.399 146.58C327.103 148.245 324.713 148.738 324.713 148.738C324.713 148.738 317.623 135.389 310.67 123.257C303.61 110.879 296.705 99.6723 298.863 93.2135Z" fill="#E81478"/>
<path d="M305.229 93.5063C305.09 93.2135 303.379 89.4676 302.161 86.1689C303.903 81.529 302.3 74.6231 300.589 72.8196C299.017 71.1702 297.506 70.5998 294.454 72.0796C290.785 73.8524 289.367 77.5982 290.169 81.8219C290.662 84.3807 292.543 87.4175 294.778 88.9898C294.531 93.7376 292.219 95.649 291.679 97.0672C290.354 100.52 304.844 103.988 308.219 98.5162C308.235 98.5162 306.709 96.5277 305.229 93.5063Z" fill="url(#paint35_linear_4_110)"/>
<path d="M322.863 158.511C322.863 158.511 323.187 156.831 324.127 155.459C325.715 153.147 330.047 151.713 333.083 154.488C335.319 156.522 335.041 157.956 334.286 158.48C333.9 158.758 332.621 158.326 332.636 157.848C332.652 157.232 332.513 156.415 331.804 155.752C330.001 154.071 326.224 154.118 325.006 157.879C325.083 158.28 323.326 161.193 322.863 158.511Z" fill="#3E3E3E"/>
<path d="M296.519 218.413L295.471 227.338C295.471 227.338 297.121 228.71 295.533 230.159C293.945 231.593 289.429 229.82 288.55 229.543C286.731 228.972 292.589 228.063 292.589 228.063L292.882 217.612L296.519 218.413Z" fill="url(#paint36_linear_4_110)"/>
<path d="M292.034 226.506C292.034 226.506 286.592 226.506 285.775 228.032C284.48 230.468 294.438 232.364 296.103 231.208C298.369 229.62 295.903 227.277 295.903 227.277C295.903 227.277 294.084 227.647 292.034 226.506Z" fill="#3E3E3E"/>
<path d="M319.457 217.642L321.8 226.182C321.8 226.182 323.557 227.431 322.093 228.988C320.628 230.545 315.973 229.142 315.079 228.942C313.214 228.51 318.979 227.153 318.979 227.153L315.927 217.211L319.457 217.642Z" fill="url(#paint37_linear_4_110)"/>
<path d="M318.439 226.398C318.439 226.398 313.06 228.001 312.798 229.712C312.366 232.441 322.355 230.976 323.542 229.327C325.16 227.076 322.062 225.674 322.062 225.674C322.062 225.674 320.752 226.814 318.439 226.398Z" fill="#3E3E3E"/>
<path d="M295.24 147.798C295.163 147.042 297.259 146.179 297.259 146.179C298.539 143.25 299.541 134.34 301.729 133.246C309.591 129.361 315.449 139.443 314.878 154.411C314 177.918 322.37 223.701 322.37 223.701C322.37 223.701 320.227 224.702 316.589 224.903C301.406 191.73 295.98 154.549 295.24 147.798Z" fill="url(#paint38_linear_4_110)"/>
<path d="M291.34 224.456C288.673 165.124 289.521 145.979 290.477 137.362C290.985 132.83 295.117 130.009 295.117 130.009C298.385 127.296 305.892 118.771 311.734 138.24C314.555 146.564 309.144 156.707 309.083 156.969C303.656 180.261 298.308 221.928 297.552 225.227C297.121 225.211 293.205 225.458 291.34 224.456Z" fill="url(#paint39_linear_4_110)"/>
<path d="M304.304 90.8087C304.304 90.8087 311.873 95.9881 313.861 107.518C316.59 123.334 316.605 131.088 314.478 140.044C314.925 143.343 290.446 144.16 289.537 142.834C288.365 141.123 290.739 137.5 289.136 124.629C287.008 107.472 291.741 94.6625 293.884 92.3656C294.115 92.119 301.683 92.2115 304.304 90.8087Z" fill="#E81478"/>
<path d="M288.427 72.6808C288.334 72.0488 288.288 71.4322 288.273 70.8619C288.257 69.6903 289.074 68.7655 290.091 68.8734C291.494 69.0121 293.591 68.6575 296.088 67.5939C300.543 65.6671 305.522 69.1046 306.878 73.9449C308.713 80.4808 304.15 83.3634 302.192 87.3866C301.206 89.4214 297.521 88.5273 297.321 86.4926C296.997 83.3479 294.839 80.1262 292.558 78.0144C290.646 76.2571 288.92 75.7946 288.427 72.6808Z" fill="#3E3E3E"/>
<path d="M293.221 79.3863C293.221 79.3863 294.269 77.9219 294.824 78.6926C295.595 79.7409 294.515 82.2381 294.515 82.2381L293.221 79.3863Z" fill="url(#paint40_linear_4_110)"/>
<path d="M293.883 91.6257C293.883 91.6257 302.084 92.4427 303.734 89.8222C303.734 89.5756 305.861 91.0091 305.861 91.5795C305.861 92.1498 301.668 96.9593 291.417 94.2463C291.217 94.1692 293.066 91.6257 293.883 91.6257Z" fill="#E4E4E4"/>
<path d="M299.294 104.883C301.252 107.164 307.202 132.984 300.25 134.387C285.575 137.331 277.081 131.643 277.081 131.643C277.081 131.643 271.856 132.552 271.856 128.853C271.856 126.109 278.5 128.097 278.839 128.159C289.012 129.886 295.209 129.361 294.901 127.126C294.053 121.099 295.071 107.38 293.39 102.802C292.327 99.919 296.273 101.353 299.294 104.883Z" fill="url(#paint41_linear_4_110)"/>
<path d="M303.687 127.126C305.044 107.226 299.525 99.0095 295.764 96.836C294.315 96.0036 291.417 96.1115 291.417 98.1308C291.417 111.233 293.714 123.581 294.485 127.589C286.438 128.39 279.286 127.28 278.977 127.974C278.392 129.331 278.623 128.945 277.42 132.306C287.933 136.452 299.895 137.809 302.346 133.277C302.978 132.074 303.749 128.868 303.687 127.126Z" fill="#E81478"/>
<defs>
<linearGradient id="paint0_linear_4_110" x1="186.184" y1="210.805" x2="186.697" y2="264.374" gradientUnits="userSpaceOnUse">
<stop stop-color="#F58ABD"/>
<stop offset="1" stop-color="#FFF3F9"/>
</linearGradient>
<linearGradient id="paint1_linear_4_110" x1="2.93301" y1="121.528" x2="373.097" y2="74.666" gradientUnits="userSpaceOnUse">
<stop stop-color="#FDF0F6"/>
<stop offset="1" stop-color="#EFB3CF"/>
</linearGradient>
<linearGradient id="paint2_linear_4_110" x1="75.1133" y1="25.1652" x2="71.6667" y2="222.616" gradientUnits="userSpaceOnUse">
<stop stop-color="#E79CBF"/>
<stop offset="1" stop-color="#FF7EBB"/>
</linearGradient>
<linearGradient id="paint3_linear_4_110" x1="142.268" y1="106.144" x2="183.653" y2="106.144" gradientUnits="userSpaceOnUse">
<stop stop-color="#FBD5DB"/>
<stop offset="1" stop-color="#ECAFB9"/>
</linearGradient>
<linearGradient id="paint4_linear_4_110" x1="139.811" y1="99.5692" x2="154.061" y2="99.5692" gradientUnits="userSpaceOnUse">
<stop stop-color="#D6ECFA"/>
<stop offset="1" stop-color="#A8CFED"/>
</linearGradient>
<linearGradient id="paint5_linear_4_110" x1="84.5297" y1="179.756" x2="144.969" y2="160.817" gradientUnits="userSpaceOnUse">
<stop stop-color="#FBD5DB"/>
<stop offset="1" stop-color="#ECAFB9"/>
</linearGradient>
<linearGradient id="paint6_linear_4_110" x1="122.54" y1="172.434" x2="149.85" y2="172.434" gradientUnits="userSpaceOnUse">
<stop stop-color="#FBD5DB"/>
<stop offset="1" stop-color="#ECAFB9"/>
</linearGradient>
<linearGradient id="paint7_linear_4_110" x1="123.223" y1="101.46" x2="147.935" y2="101.46" gradientUnits="userSpaceOnUse">
<stop stop-color="#DBBBC2"/>
<stop offset="1" stop-color="#D9A1AB"/>
</linearGradient>
<linearGradient id="paint8_linear_4_110" x1="111.707" y1="150.432" x2="151.36" y2="150.432" gradientUnits="userSpaceOnUse">
<stop stop-color="#2F5C91"/>
<stop offset="1" stop-color="#10274A"/>
</linearGradient>
<linearGradient id="paint9_linear_4_110" x1="149.647" y1="129.357" x2="116.691" y2="99.683" gradientUnits="userSpaceOnUse">
<stop stop-color="#D6ECFA"/>
<stop offset="1" stop-color="#A8CFED"/>
</linearGradient>
<linearGradient id="paint10_linear_4_110" x1="133.34" y1="75.4916" x2="147.001" y2="75.4916" gradientUnits="userSpaceOnUse">
<stop stop-color="#FBD5DB"/>
<stop offset="1" stop-color="#ECAFB9"/>
</linearGradient>
<linearGradient id="paint11_linear_4_110" x1="102.169" y1="113.507" x2="129.132" y2="113.507" gradientUnits="userSpaceOnUse">
<stop stop-color="#FBD5DB"/>
<stop offset="1" stop-color="#ECAFB9"/>
</linearGradient>
<linearGradient id="paint12_linear_4_110" x1="114.211" y1="97.0407" x2="132.05" y2="97.0407" gradientUnits="userSpaceOnUse">
<stop stop-color="#D6ECFA"/>
<stop offset="1" stop-color="#A8CFED"/>
</linearGradient>
<linearGradient id="paint13_linear_4_110" x1="185.594" y1="125.767" x2="182.595" y2="137.1" gradientUnits="userSpaceOnUse">
<stop stop-color="#D7EDFA"/>
<stop offset="1" stop-color="#A7CFEE"/>
</linearGradient>
<linearGradient id="paint14_linear_4_110" x1="185.538" y1="125.976" x2="182.65" y2="136.89" gradientUnits="userSpaceOnUse">
<stop stop-color="#A0C4E8"/>
<stop offset="1" stop-color="#67A3D8"/>
</linearGradient>
<linearGradient id="paint15_linear_4_110" x1="181.391" y1="110.77" x2="182.811" y2="118.965" gradientUnits="userSpaceOnUse">
<stop stop-color="#68A9DC"/>
<stop offset="1" stop-color="#3A6EAE"/>
</linearGradient>
<linearGradient id="paint16_linear_4_110" x1="182.18" y1="121.19" x2="182.714" y2="124.272" gradientUnits="userSpaceOnUse">
<stop stop-color="#2F5B91"/>
<stop offset="1" stop-color="#00264C"/>
</linearGradient>
<linearGradient id="paint17_linear_4_110" x1="127.818" y1="95.7365" x2="-2.423" y2="159.259" gradientUnits="userSpaceOnUse">
<stop stop-color="#F04495"/>
<stop offset="0.3827" stop-color="#EA4C96"/>
<stop offset="0.7576" stop-color="#EA539A"/>
<stop offset="1" stop-color="#DF4F93"/>
</linearGradient>
<linearGradient id="paint18_linear_4_110" x1="97.3133" y1="163.071" x2="61.2634" y2="205.072" gradientUnits="userSpaceOnUse">
<stop stop-color="#F04495"/>
<stop offset="0.3827" stop-color="#EA4C96"/>
<stop offset="0.7576" stop-color="#EA539A"/>
<stop offset="1" stop-color="#DF4F93"/>
</linearGradient>
<linearGradient id="paint19_linear_4_110" x1="97.3133" y1="75.1295" x2="61.2634" y2="117.13" gradientUnits="userSpaceOnUse">
<stop stop-color="#F04495"/>
<stop offset="0.3827" stop-color="#EA4C96"/>
<stop offset="0.7576" stop-color="#EA539A"/>
<stop offset="1" stop-color="#DF4F93"/>
</linearGradient>
<linearGradient id="paint20_linear_4_110" x1="88.6395" y1="126.661" x2="96.7353" y2="123.553" gradientUnits="userSpaceOnUse">
<stop stop-color="#FBD4DA"/>
<stop offset="0.5474" stop-color="#F1BEC6"/>
<stop offset="1" stop-color="#EDB0BA"/>
</linearGradient>
<linearGradient id="paint21_linear_4_110" x1="98.7275" y1="131.501" x2="99.5039" y2="131.501" gradientUnits="userSpaceOnUse">
<stop stop-color="#FBD4DA"/>
<stop offset="1" stop-color="#EDB0BA"/>
</linearGradient>
<linearGradient id="paint22_linear_4_110" x1="98.7829" y1="126.303" x2="99.4484" y2="126.303" gradientUnits="userSpaceOnUse">
<stop stop-color="#FBD4DA"/>
<stop offset="1" stop-color="#EDB0BA"/>
</linearGradient>
<linearGradient id="paint23_linear_4_110" x1="206.498" y1="215.964" x2="213.862" y2="217.699" gradientUnits="userSpaceOnUse">
<stop stop-color="#FBD4DA"/>
<stop offset="1" stop-color="#EDB0BA"/>
</linearGradient>
<linearGradient id="paint24_linear_4_110" x1="232.101" y1="216.474" x2="240.35" y2="218.796" gradientUnits="userSpaceOnUse">
<stop stop-color="#FBD4DA"/>
<stop offset="1" stop-color="#EDB0BA"/>
</linearGradient>
<linearGradient id="paint25_linear_4_110" x1="238.807" y1="219.105" x2="235.389" y2="219.766" gradientUnits="userSpaceOnUse">
<stop stop-color="#D7EDFA"/>
<stop offset="1" stop-color="#A7CFEE"/>
</linearGradient>
<linearGradient id="paint26_linear_4_110" x1="212.629" y1="218.83" x2="209.063" y2="218.797" gradientUnits="userSpaceOnUse">
<stop stop-color="#D7EDFA"/>
<stop offset="1" stop-color="#A7CFEE"/>
</linearGradient>
<linearGradient id="paint27_linear_4_110" x1="233.779" y1="90.5247" x2="219.15" y2="87.0486" gradientUnits="userSpaceOnUse">
<stop stop-color="#DDBCC2"/>
<stop offset="1" stop-color="#D9A2AB"/>
</linearGradient>
<linearGradient id="paint28_linear_4_110" x1="238.522" y1="117.831" x2="211.032" y2="118.037" gradientUnits="userSpaceOnUse">
<stop stop-color="#68A9DC"/>
<stop offset="1" stop-color="#3A6EAE"/>
</linearGradient>
<linearGradient id="paint29_linear_4_110" x1="238.728" y1="117.647" x2="215.622" y2="116.444" gradientUnits="userSpaceOnUse">
<stop stop-color="#2F5B91"/>
<stop offset="1" stop-color="#00264C"/>
</linearGradient>
<linearGradient id="paint30_linear_4_110" x1="207.284" y1="110.395" x2="226.535" y2="119.43" gradientUnits="userSpaceOnUse">
<stop stop-color="#FBD4DA"/>
<stop offset="1" stop-color="#EDB0BA"/>
</linearGradient>
<linearGradient id="paint31_linear_4_110" x1="224.041" y1="108.958" x2="223.076" y2="93.074" gradientUnits="userSpaceOnUse">
<stop stop-color="#68A9DC"/>
<stop offset="1" stop-color="#3A6EAE"/>
</linearGradient>
<linearGradient id="paint32_linear_4_110" x1="218.496" y1="75.0829" x2="232.682" y2="79.2339" gradientUnits="userSpaceOnUse">
<stop stop-color="#FBD4DA"/>
<stop offset="1" stop-color="#EDB0BA"/>
</linearGradient>
<linearGradient id="paint33_linear_4_110" x1="277.197" y1="130.484" x2="267.415" y2="130.484" gradientUnits="userSpaceOnUse">
<stop stop-color="#E81478"/>
<stop offset="1" stop-color="#7D0D42"/>
</linearGradient>
<linearGradient id="paint34_linear_4_110" x1="324.122" y1="150.746" x2="330.088" y2="147.903" gradientUnits="userSpaceOnUse">
<stop stop-color="#FBD4DA"/>
<stop offset="1" stop-color="#EDB0BA"/>
</linearGradient>
<linearGradient id="paint35_linear_4_110" x1="308.236" y1="86.299" x2="289.963" y2="86.299" gradientUnits="userSpaceOnUse">
<stop stop-color="#FBD4DA"/>
<stop offset="1" stop-color="#EDB0BA"/>
</linearGradient>
<linearGradient id="paint36_linear_4_110" x1="289.898" y1="223.27" x2="297.263" y2="225.34" gradientUnits="userSpaceOnUse">
<stop stop-color="#FBD4DA"/>
<stop offset="1" stop-color="#EDB0BA"/>
</linearGradient>
<linearGradient id="paint37_linear_4_110" x1="314.832" y1="222.846" x2="323.335" y2="224.514" gradientUnits="userSpaceOnUse">
<stop stop-color="#FBD4DA"/>
<stop offset="1" stop-color="#EDB0BA"/>
</linearGradient>
<linearGradient id="paint38_linear_4_110" x1="299.307" y1="180.114" x2="318.475" y2="177.693" gradientUnits="userSpaceOnUse">
<stop stop-color="#2F5B91"/>
<stop offset="1" stop-color="#00264C"/>
</linearGradient>
<linearGradient id="paint39_linear_4_110" x1="285.652" y1="177.223" x2="316.288" y2="173.539" gradientUnits="userSpaceOnUse">
<stop stop-color="#2F5B91"/>
<stop offset="1" stop-color="#00264C"/>
</linearGradient>
<linearGradient id="paint40_linear_4_110" x1="295.171" y1="80.299" x2="293.32" y2="80.4579" gradientUnits="userSpaceOnUse">
<stop stop-color="#FBD4DA"/>
<stop offset="1" stop-color="#EDB0BA"/>
</linearGradient>
<linearGradient id="paint41_linear_4_110" x1="285.408" y1="110.186" x2="288.951" y2="136.308" gradientUnits="userSpaceOnUse">
<stop stop-color="#FBD4DA"/>
<stop offset="1" stop-color="#EDB0BA"/>
</linearGradient>
</defs>
</svg>
