<svg width="100" height="100" viewBox="0 0 100 100" fill="none" xmlns="http://www.w3.org/2000/svg">
<path d="M78 51.8978C78.0081 45.8332 76.2771 39.8924 73.0103 34.7735C69.7436 29.6546 65.0768 25.5704 59.5587 23.0008C54.0405 20.4312 47.9001 19.4831 41.8592 20.2678C35.8184 21.0526 30.1281 23.5376 25.4571 27.4308C20.7861 31.324 17.3285 36.4637 15.4908 42.2457C13.653 48.0277 13.5114 54.2117 15.0826 60.0711C16.6538 65.9304 19.8725 71.2216 24.3605 75.3226C28.8484 79.4236 34.4191 82.1642 40.4178 83.2221L43.9683 84.0443C44.1229 84.333 44.3535 84.5744 44.6353 84.7428C44.9171 84.9111 45.2396 85 45.5683 85C45.8969 85 46.2194 84.9111 46.5012 84.7428C46.783 84.5744 47.0136 84.333 47.1683 84.0443L51.5822 83.2221C58.9785 81.9177 65.6782 78.0647 70.508 72.3378C75.3378 66.611 77.99 59.3753 78 51.8978Z" fill="url(#paint0_linear_16761_26849)"/>
<path d="M83.5538 83.9238C83.0253 83.4055 82.3659 83.0404 81.6461 82.8677C80.9262 82.6949 80.173 82.7209 79.4668 82.9429L71.7016 75.1368C77.7176 68.366 80.8587 59.5176 80.4583 50.4691C80.0579 41.4206 76.1476 32.8842 69.5571 26.6713C62.9666 20.4583 54.2146 17.0578 45.1582 17.1913C36.1019 17.3248 27.4539 20.9818 21.0494 27.3863C14.6449 33.7908 10.9879 42.4388 10.8544 51.4951C10.7209 60.5515 14.1214 69.3035 20.3343 75.894C26.5473 82.4845 35.0837 86.3948 44.1322 86.7952C53.1807 87.1956 62.0291 84.0545 68.7999 78.0385L76.606 85.8446C76.4226 86.5216 76.4165 87.2343 76.5883 87.9143C76.7601 88.5943 77.1039 89.2186 77.5868 89.7272L86.5781 98.6777C87.3394 99.4327 88.3668 99.8584 89.439 99.8629C89.9769 99.866 90.5101 99.7629 91.008 99.5595C91.506 99.3561 91.9589 99.0564 92.3408 98.6777C93.102 97.9119 93.5292 96.8761 93.5292 95.7964C93.5292 94.7166 93.102 93.6808 92.3408 92.9151L83.5538 83.9238ZM24.2521 73.7472C19.9615 69.462 17.0383 64.0003 15.8525 58.0534C14.6667 52.1064 15.2715 45.9413 17.5904 40.3381C19.9092 34.7349 23.838 29.9455 28.8795 26.5757C33.9211 23.2059 39.8489 21.4072 45.9129 21.4072C51.977 21.4072 57.9048 23.2059 62.9463 26.5757C67.9879 29.9455 71.9166 34.7349 74.2355 40.3381C76.5544 45.9413 77.1591 52.1064 75.9733 58.0534C74.7875 64.0003 71.8644 69.462 67.5738 73.7472C64.7307 76.5944 61.3542 78.8531 57.6374 80.3942C53.9207 81.9353 49.9365 82.7285 45.9129 82.7285C41.8893 82.7285 37.9052 81.9353 34.1884 80.3942C30.4716 78.8531 27.0951 76.5944 24.2521 73.7472Z" fill="url(#paint1_linear_16761_26849)"/>
<path d="M30.1783 51.4769C30.3618 51.6724 30.5834 51.8282 30.8294 51.9347C31.0754 52.0412 31.3407 52.0961 31.6088 52.0961C31.8769 52.0961 32.1421 52.0412 32.3881 51.9347C32.6342 51.8282 32.8557 51.6724 33.0392 51.4769L35.6957 48.8612L38.3522 51.4769C38.5357 51.6724 38.7573 51.8282 39.0033 51.9347C39.2493 52.0412 39.5146 52.0961 39.7827 52.0961C40.0508 52.0961 40.316 52.0412 40.562 51.9347C40.8081 51.8282 41.0297 51.6724 41.2131 51.4769C41.4086 51.2934 41.5644 51.0719 41.6709 50.8258C41.7774 50.5798 41.8324 50.3146 41.8324 50.0465C41.8324 49.7784 41.7774 49.5131 41.6709 49.2671C41.5644 49.0211 41.4086 48.7995 41.2131 48.616L38.5975 45.9595L41.2131 43.303C41.5925 42.9236 41.8056 42.4091 41.8056 41.8726C41.8056 41.336 41.5925 40.8215 41.2131 40.4421C40.8337 40.0627 40.3192 39.8496 39.7827 39.8496C39.2462 39.8496 38.7316 40.0627 38.3522 40.4421L35.6957 43.0578L33.0392 40.4421C32.6598 40.0627 32.1453 39.8496 31.6088 39.8496C31.0722 39.8496 30.5577 40.0627 30.1783 40.4421C29.799 40.8215 29.5858 41.336 29.5858 41.8726C29.5858 42.4091 29.799 42.9236 30.1783 43.303L32.794 45.9595L30.1783 48.616C29.9828 48.7995 29.827 49.0211 29.7205 49.2671C29.614 49.5131 29.5591 49.7784 29.5591 50.0465C29.5591 50.3146 29.614 50.5798 29.7205 50.8258C29.827 51.0719 29.9828 51.2934 30.1783 51.4769Z" fill="#FFA800"/>
<path d="M50.6134 51.4769C50.7969 51.6724 51.0184 51.8282 51.2645 51.9347C51.5105 52.0412 51.7757 52.0961 52.0438 52.0961C52.3119 52.0961 52.5772 52.0412 52.8232 51.9347C53.0692 51.8282 53.2908 51.6724 53.4743 51.4769L56.1308 48.8612L58.7873 51.4769C58.9708 51.6724 59.1923 51.8282 59.4384 51.9347C59.6844 52.0412 59.9496 52.0961 60.2177 52.0961C60.4858 52.0961 60.7511 52.0412 60.9971 51.9347C61.2431 51.8282 61.4647 51.6724 61.6482 51.4769C61.8437 51.2934 61.9995 51.0719 62.106 50.8258C62.2125 50.5798 62.2674 50.3146 62.2674 50.0465C62.2674 49.7784 62.2125 49.5131 62.106 49.2671C61.9995 49.0211 61.8437 48.7995 61.6482 48.616L59.0325 45.9595L61.6482 43.303C61.836 43.1151 61.985 42.8921 62.0867 42.6467C62.1883 42.4013 62.2407 42.1382 62.2407 41.8726C62.2407 41.6069 62.1883 41.3438 62.0867 41.0984C61.985 40.853 61.836 40.63 61.6482 40.4421C61.4603 40.2543 61.2373 40.1053 60.9919 40.0036C60.7464 39.9019 60.4834 39.8496 60.2177 39.8496C59.9521 39.8496 59.689 39.9019 59.4436 40.0036C59.1982 40.1053 58.9751 40.2543 58.7873 40.4421L56.1308 43.0578L53.4743 40.4421C53.0949 40.0627 52.5803 39.8496 52.0438 39.8496C51.5073 39.8496 50.9928 40.0627 50.6134 40.4421C50.234 40.8215 50.0209 41.336 50.0209 41.8726C50.0209 42.4091 50.234 42.9236 50.6134 43.303L53.229 45.9595L50.6134 48.616C50.4179 48.7995 50.2621 49.0211 50.1556 49.2671C50.0491 49.5131 49.9941 49.7784 49.9941 50.0465C49.9941 50.3146 50.0491 50.5798 50.1556 50.8258C50.2621 51.0719 50.4179 51.2934 50.6134 51.4769Z" fill="#FFA800"/>
<path d="M62.2611 58.2168H29.5655C29.0235 58.2168 28.5037 58.4321 28.1205 58.8153C27.7373 59.1985 27.522 59.7183 27.522 60.2603C27.522 60.8022 27.7373 61.322 28.1205 61.7052C28.5037 62.0885 29.0235 62.3038 29.5655 62.3038H35.6959V68.4342C35.6959 70.0601 36.3418 71.6194 37.4914 72.7691C38.6411 73.9187 40.2004 74.5646 41.8263 74.5646C43.4522 74.5646 45.0115 73.9187 46.1612 72.7691C47.3109 71.6194 47.9568 70.0601 47.9568 68.4342V62.3038H62.2611C62.8031 62.3038 63.3228 62.0885 63.7061 61.7052C64.0893 61.322 64.3046 60.8022 64.3046 60.2603C64.3046 59.7183 64.0893 59.1985 63.7061 58.8153C63.3228 58.4321 62.8031 58.2168 62.2611 58.2168ZM43.8698 68.4342C43.8698 68.9762 43.6545 69.4959 43.2713 69.8791C42.8881 70.2624 42.3683 70.4777 41.8263 70.4777C41.2844 70.4777 40.7646 70.2624 40.3814 69.8791C39.9981 69.4959 39.7828 68.9762 39.7828 68.4342V62.3038H43.8698V68.4342Z" fill="url(#paint2_linear_16761_26849)"/>
<path d="M86.7828 5.08594C84.762 5.08594 82.7866 5.68518 81.1063 6.80788C79.4261 7.93058 78.1165 9.52632 77.3432 11.3933C76.5699 13.2603 76.3675 15.3147 76.7618 17.2966C77.156 19.2786 78.1291 21.0992 79.558 22.5281C80.987 23.957 82.8075 24.9302 84.7895 25.3244C86.7715 25.7186 88.8259 25.5163 90.6929 24.743C92.5598 23.9696 94.1556 22.66 95.2783 20.9798C96.401 19.2996 97.0002 17.3241 97.0002 15.3033C97.0002 12.5935 95.9237 9.99467 94.0076 8.07854C92.0915 6.16241 89.4926 5.08594 86.7828 5.08594ZM86.7828 21.4338C85.5703 21.4338 84.3851 21.0742 83.3769 20.4006C82.3688 19.727 81.583 18.7695 81.119 17.6493C80.655 16.5292 80.5336 15.2965 80.7702 14.1073C81.0067 12.9182 81.5906 11.8258 82.448 10.9685C83.3053 10.1111 84.3977 9.52723 85.5868 9.29069C86.776 9.05414 88.0086 9.17555 89.1288 9.63954C90.249 10.1035 91.2065 10.8893 91.8801 11.8974C92.5537 12.9056 92.9133 14.0908 92.9133 15.3033C92.9133 16.9292 92.2674 18.4885 91.1177 19.6382C89.968 20.7879 88.4087 21.4338 86.7828 21.4338Z" fill="url(#paint3_linear_16761_26849)"/>
<path d="M19.3478 9.17392C19.3478 7.55727 18.8684 5.97693 17.9703 4.63274C17.0721 3.28854 15.7955 2.24087 14.3019 1.62221C12.8084 1.00354 11.1649 0.841671 9.57927 1.15706C7.99368 1.47246 6.53723 2.25095 5.39409 3.39409C4.25095 4.53723 3.47246 5.99368 3.15706 7.57927C2.84167 9.16485 3.00354 10.8084 3.62221 12.3019C4.24087 13.7955 5.28854 15.0721 6.63274 15.9703C7.97693 16.8684 9.55727 17.3478 11.1739 17.3478C13.3418 17.3478 15.4208 16.4867 16.9537 14.9537C18.4867 13.4208 19.3478 11.3418 19.3478 9.17392ZM7.08696 9.17392C7.08696 8.36559 7.32666 7.57542 7.77574 6.90333C8.22482 6.23123 8.86311 5.70739 9.60991 5.39806C10.3567 5.08873 11.1785 5.00779 11.9712 5.16549C12.764 5.32319 13.4923 5.71243 14.0638 6.284C14.6354 6.85557 15.0246 7.5838 15.1823 8.37659C15.34 9.16938 15.2591 9.99113 14.9498 10.7379C14.6404 11.4847 14.1166 12.123 13.4445 12.5721C12.7724 13.0212 11.9822 13.2609 11.1739 13.2609C10.09 13.2609 9.05046 12.8303 8.284 12.0638C7.51755 11.2974 7.08696 10.2578 7.08696 9.17392Z" fill="url(#paint4_linear_16761_26849)"/>
<path d="M17.3038 90.9131H15.2603V88.8697C15.2603 88.3277 15.045 87.8079 14.6618 87.4247C14.2786 87.0415 13.7588 86.8262 13.2169 86.8262C12.6749 86.8262 12.1551 87.0415 11.7719 87.4247C11.3887 87.8079 11.1734 88.3277 11.1734 88.8697V90.9131H9.1299C8.58794 90.9131 8.06817 91.1284 7.68495 91.5116C7.30172 91.8949 7.08643 92.4146 7.08643 92.9566C7.08643 93.4986 7.30172 94.0183 7.68495 94.4016C8.06817 94.7848 8.58794 95.0001 9.1299 95.0001H11.1734V97.0436C11.1734 97.5855 11.3887 98.1053 11.7719 98.4885C12.1551 98.8717 12.6749 99.087 13.2169 99.087C13.7588 99.087 14.2786 98.8717 14.6618 98.4885C15.045 98.1053 15.2603 97.5855 15.2603 97.0436V95.0001H17.3038C17.8458 95.0001 18.3655 94.7848 18.7488 94.4016C19.132 94.0183 19.3473 93.4986 19.3473 92.9566C19.3473 92.4146 19.132 91.8949 18.7488 91.5116C18.3655 91.1284 17.8458 90.9131 17.3038 90.9131Z" fill="url(#paint5_linear_16761_26849)"/>
<defs>
<linearGradient id="paint0_linear_16761_26849" x1="46" y1="92.177" x2="46" y2="20.0425" gradientUnits="userSpaceOnUse">
<stop stop-color="#D3E6F5"/>
<stop offset="1" stop-color="#F0F7FC"/>
</linearGradient>
<linearGradient id="paint1_linear_16761_26849" x1="52.1899" y1="17.1875" x2="52.1899" y2="99.863" gradientUnits="userSpaceOnUse">
<stop stop-color="#00CE5B"/>
<stop offset="1" stop-color="#00893C"/>
</linearGradient>
<linearGradient id="paint2_linear_16761_26849" x1="45.9133" y1="58.2168" x2="45.9133" y2="74.5646" gradientUnits="userSpaceOnUse">
<stop stop-color="#00CE5B"/>
<stop offset="1" stop-color="#00893C"/>
</linearGradient>
<linearGradient id="paint3_linear_16761_26849" x1="86.7828" y1="5.08594" x2="86.7828" y2="25.5207" gradientUnits="userSpaceOnUse">
<stop stop-color="#00CE5B"/>
<stop offset="1" stop-color="#00893C"/>
</linearGradient>
<linearGradient id="paint4_linear_16761_26849" x1="11.1739" y1="1" x2="11.1739" y2="17.3478" gradientUnits="userSpaceOnUse">
<stop stop-color="#00CE5B"/>
<stop offset="1" stop-color="#00893C"/>
</linearGradient>
<linearGradient id="paint5_linear_16761_26849" x1="13.2169" y1="86.8262" x2="13.2169" y2="99.087" gradientUnits="userSpaceOnUse">
<stop stop-color="#00CE5B"/>
<stop offset="1" stop-color="#00893C"/>
</linearGradient>
</defs>
</svg>
