<svg width="96" height="96" viewBox="0 0 96 96" fill="none" xmlns="http://www.w3.org/2000/svg">
<path d="M95.125 94.1667C94.7416 94.7052 94.2356 95.1447 93.6487 95.449C93.0619 95.7533 92.411 95.9136 91.75 95.9167H4.25C3.58896 95.9136 2.93813 95.7533 2.35128 95.449C1.76443 95.1447 1.2584 94.7052 0.875 94.1667C17.3333 57.5625 13.9167 65.1667 18.8333 54.25H77.1667C82.4583 66.0208 78.5417 57.3333 95.125 94.1667Z" fill="#00893C"/>
<path d="M18.8332 27.166V54.2493C13.5416 66.0202 17.4582 57.3327 0.874891 94.166C0.352377 93.4695 0.0741219 92.62 0.0832242 91.7493V62.5827L18.8332 27.166Z" fill="#00CE5B"/>
<path d="M95.9165 62.5827V91.7493C95.9256 92.62 95.6474 93.4695 95.1248 94.166C78.6665 57.5618 82.0832 65.166 77.1665 54.2493V27.166L95.9165 62.5827Z" fill="#00CE5B"/>
<path d="M95.9164 62.5841V91.7508C95.9164 92.8559 95.4774 93.9157 94.696 94.6971C93.9146 95.4785 92.8548 95.9175 91.7497 95.9175H4.24967C3.14461 95.9175 2.0848 95.4785 1.3034 94.6971C0.521995 93.9157 0.0830078 92.8559 0.0830078 91.7508V62.5841H35.6872C36.1896 62.5784 36.6772 62.7545 37.06 63.0799C37.4428 63.4054 37.6952 63.8582 37.7705 64.355C38.0917 66.2399 38.9256 68 40.1807 69.4425C41.4358 70.885 43.0637 71.9542 44.8861 72.533C46.7085 73.1117 48.655 73.1777 50.5124 72.7238C52.3698 72.2698 54.0664 71.3133 55.4163 69.9591C56.931 68.4304 57.9416 66.4748 58.3122 64.355C58.3875 63.8582 58.6399 63.4054 59.0227 63.0799C59.4055 62.7545 59.8931 62.5784 60.3955 62.5841H95.9164Z" fill="url(#paint0_linear_16791_32904)"/>
<path d="M18.833 27.166H77.1663V54.2494H18.833V27.166Z" fill="url(#paint1_linear_16791_32904)"/>
<path d="M66.75 18.8336C66.7547 15.264 65.7405 11.7673 63.8264 8.7543C61.9122 5.74132 59.1778 3.33733 55.9445 1.82487C52.7112 0.312418 49.1133 -0.245656 45.5738 0.216243C42.0342 0.678142 38.7 2.14082 35.9631 4.43237C33.2262 6.72391 31.2003 9.7491 30.1235 13.1524C29.0467 16.5557 28.9637 20.1956 29.8843 23.6444C30.805 27.0932 32.6909 30.2076 35.3206 32.6215C37.9502 35.0353 41.2143 36.6484 44.7292 37.2711L47.0625 41.9794C47.1531 42.1494 47.2882 42.2915 47.4533 42.3905C47.6185 42.4896 47.8074 42.5419 48 42.5419C48.1926 42.5419 48.3815 42.4896 48.5466 42.3905C48.7118 42.2915 48.8469 42.1494 48.9375 41.9794L51.2708 37.2711C55.6046 36.5033 59.5302 34.2355 62.3602 30.8646C65.1901 27.4938 66.7441 23.2349 66.75 18.8336Z" fill="url(#paint2_linear_16791_32904)"/>
<path d="M50.9376 18.834L55.7292 14.0632C56.1215 13.6709 56.3419 13.1388 56.3419 12.584C56.3419 12.0293 56.1215 11.4972 55.7292 11.1049C55.3369 10.7126 54.8049 10.4922 54.2501 10.4922C53.6953 10.4922 53.1632 10.7126 52.7709 11.1049L48.0001 15.8965L43.2292 11.1049C43.035 10.9106 42.8044 10.7565 42.5506 10.6514C42.2968 10.5463 42.0248 10.4922 41.7501 10.4922C41.1953 10.4922 40.6632 10.7126 40.2709 11.1049C39.8786 11.4972 39.6582 12.0293 39.6582 12.584C39.6582 13.1388 39.8786 13.6709 40.2709 14.0632L45.0626 18.834L40.2709 23.6049C40.0766 23.7991 39.9226 24.0297 39.8174 24.2835C39.7123 24.5373 39.6582 24.8093 39.6582 25.084C39.6582 25.6388 39.8786 26.1709 40.2709 26.5632C40.6632 26.9555 41.1953 27.1759 41.7501 27.1759C42.0248 27.1759 42.2968 27.1218 42.5506 27.0167C42.8044 26.9115 43.035 26.7575 43.2292 26.5632L48.0001 21.7715L52.7709 26.5632C53.1632 26.9555 53.6953 27.1759 54.2501 27.1759C54.8049 27.1759 55.3369 26.9555 55.7292 26.5632C56.1215 26.1709 56.3419 25.6388 56.3419 25.084C56.3419 24.5292 56.1215 23.9972 55.7292 23.6049L50.9376 18.834Z" fill="#FFA800"/>
<path d="M20.9163 77.166H8.41634C7.26575 77.166 6.33301 78.0988 6.33301 79.2493V87.5827C6.33301 88.7333 7.26575 89.666 8.41634 89.666H20.9163C22.0669 89.666 22.9997 88.7333 22.9997 87.5827V79.2493C22.9997 78.0988 22.0669 77.166 20.9163 77.166Z" fill="url(#paint3_linear_16791_32904)"/>
<path d="M16.75 85.5007H12.5833C12.0308 85.5007 11.5009 85.2812 11.1102 84.8905C10.7195 84.4998 10.5 83.9699 10.5 83.4173C10.5 82.8648 10.7195 82.3349 11.1102 81.9442C11.5009 81.5535 12.0308 81.334 12.5833 81.334H16.75C17.3025 81.334 17.8324 81.5535 18.2231 81.9442C18.6138 82.3349 18.8333 82.8648 18.8333 83.4173C18.8333 83.9699 18.6138 84.4998 18.2231 84.8905C17.8324 85.2812 17.3025 85.5007 16.75 85.5007Z" fill="#FFA800"/>
<path d="M33.4165 89.6667H29.2498C28.6973 89.6667 28.1674 89.4472 27.7767 89.0565C27.386 88.6658 27.1665 88.1359 27.1665 87.5833C27.1665 87.0308 27.386 86.5009 27.7767 86.1102C28.1674 85.7195 28.6973 85.5 29.2498 85.5H33.4165C33.969 85.5 34.4989 85.7195 34.8896 86.1102C35.2803 86.5009 35.4998 87.0308 35.4998 87.5833C35.4998 88.1359 35.2803 88.6658 34.8896 89.0565C34.4989 89.4472 33.969 89.6667 33.4165 89.6667Z" fill="#00893C"/>
<path d="M37.5832 81.3327H29.2498C28.6973 81.3327 28.1674 81.1132 27.7767 80.7225C27.386 80.3318 27.1665 79.8019 27.1665 79.2493C27.1665 78.6968 27.386 78.1669 27.7767 77.7762C28.1674 77.3855 28.6973 77.166 29.2498 77.166H37.5832C38.1357 77.166 38.6656 77.3855 39.0563 77.7762C39.447 78.1669 39.6665 78.6968 39.6665 79.2493C39.6665 79.8019 39.447 80.3318 39.0563 80.7225C38.6656 81.1132 38.1357 81.3327 37.5832 81.3327Z" fill="#00893C"/>
<defs>
<linearGradient id="paint0_linear_16791_32904" x1="47.9997" y1="95.9175" x2="47.9997" y2="62.5841" gradientUnits="userSpaceOnUse">
<stop stop-color="#009642"/>
<stop offset="1" stop-color="#00E765"/>
</linearGradient>
<linearGradient id="paint1_linear_16791_32904" x1="47.9997" y1="27.166" x2="47.9997" y2="64.666" gradientUnits="userSpaceOnUse">
<stop stop-color="#00B650"/>
<stop offset="0.985" stop-color="#009642"/>
</linearGradient>
<linearGradient id="paint2_linear_16791_32904" x1="48" y1="42.5419" x2="48" y2="0.0836073" gradientUnits="userSpaceOnUse">
<stop stop-color="#D3E6F5"/>
<stop offset="1" stop-color="#F0F7FC"/>
</linearGradient>
<linearGradient id="paint3_linear_16791_32904" x1="6.33301" y1="83.416" x2="22.9997" y2="83.416" gradientUnits="userSpaceOnUse">
<stop stop-color="#D3E6F5"/>
<stop offset="1" stop-color="#F0F7FC"/>
</linearGradient>
</defs>
</svg>
