<svg width="92" height="100" viewBox="0 0 92 100" fill="none" xmlns="http://www.w3.org/2000/svg">
<path d="M20.8445 89.4498C32.0942 89.4498 41.2139 80.3301 41.2139 69.0804C41.2139 57.8306 32.0942 48.7109 20.8445 48.7109C9.59479 48.7109 0.475098 57.8306 0.475098 69.0804C0.475098 80.3301 9.59479 89.4498 20.8445 89.4498Z" fill="url(#paint0_linear_16840_33381)"/>
<path d="M43.815 77.8322C57.7198 77.8322 68.9919 66.5602 68.9919 52.6554C68.9919 38.7506 57.7198 27.4785 43.815 27.4785C29.9103 27.4785 18.6382 38.7506 18.6382 52.6554C18.6382 66.5602 29.9103 77.8322 43.815 77.8322Z" fill="url(#paint1_linear_16840_33381)"/>
<path d="M66.3692 96.9356C80.2621 96.9356 91.5245 85.6732 91.5245 71.7803C91.5245 57.8874 80.2621 46.625 66.3692 46.625C52.4763 46.625 41.2139 57.8874 41.2139 71.7803C41.2139 85.6732 52.4763 96.9356 66.3692 96.9356Z" fill="url(#paint2_linear_16840_33381)"/>
<path d="M39.0077 100.002C46.8005 100.002 53.1179 93.6843 53.1179 85.8914C53.1179 78.0986 46.8005 71.7812 39.0077 71.7812C31.2148 71.7812 24.8975 78.0986 24.8975 85.8914C24.8975 93.6843 31.2148 100.002 39.0077 100.002Z" fill="url(#paint3_linear_16840_33381)"/>
<path d="M91.5247 71.7805C91.5247 58.5307 81.2807 47.6738 68.2807 46.6969C65.6041 35.6685 55.6668 27.4785 43.815 27.4785C41.7015 27.4785 39.6496 27.7403 37.688 28.2309V29.812L89.5172 81.6415C90.809 78.6134 91.5247 75.2807 91.5247 71.7805Z" fill="url(#paint4_linear_16840_33381)"/>
<path d="M51.4995 37.5L40.9995 48.2892L78.4962 85.7857C82.8621 82.2855 85.8773 77.1706 86.6346 71.3458L51.4995 37.5Z" fill="url(#paint5_linear_16840_33381)"/>
<path d="M46.0008 50.5348C50.419 50.5348 54.0006 46.9532 54.0006 42.535C54.0006 38.1168 50.419 34.5352 46.0008 34.5352C41.5826 34.5352 38.001 38.1168 38.001 42.535C38.001 46.9532 41.5826 50.5348 46.0008 50.5348Z" fill="url(#paint6_linear_16840_33381)"/>
<path d="M45.9998 0C36.91 0 28.5379 3.1451 21.9208 8.4049C20.3983 9.6151 20.2549 11.8769 21.6106 13.2716L21.6118 13.2727C22.7979 14.4929 24.7069 14.591 26.0406 13.5339C31.529 9.18431 38.4651 6.58353 45.9998 6.58353C53.5345 6.58353 60.4706 9.18451 65.9592 13.5341C67.293 14.5912 69.202 14.4931 70.3881 13.2729L70.3892 13.2718C71.7449 11.8773 71.6014 9.6153 70.079 8.4051C63.4618 3.1451 55.0896 0 45.9998 0Z" fill="url(#paint7_linear_16840_33381)"/>
<path d="M46 11.5098C40.0917 11.5098 34.6174 13.399 30.1484 16.6049C28.507 17.7823 28.2835 20.1366 29.6913 21.5851C30.8188 22.7449 32.6317 22.927 33.9441 21.9815C37.3396 19.5355 41.5049 18.0931 45.9998 18.0931C50.4947 18.0931 54.66 19.5355 58.0555 21.9815C59.3678 22.927 61.1809 22.7449 62.3082 21.5851C63.7162 20.1366 63.4925 17.7823 61.8511 16.6049C57.3825 13.399 51.9082 11.5098 46 11.5098Z" fill="url(#paint8_linear_16840_33381)"/>
<path d="M45.9999 22.7441C43.2866 22.7441 40.7291 23.422 38.4872 24.6179C36.5589 25.6463 36.1648 28.2441 37.6881 29.811C38.7019 30.8539 40.286 31.119 41.5687 30.4337C42.8903 29.7277 44.3985 29.3277 45.9997 29.3277C47.6009 29.3277 49.1091 29.7279 50.4307 30.4337C51.7134 31.119 53.2975 30.8537 54.3113 29.811C55.8344 28.2441 55.4403 25.6463 53.5123 24.6179C51.2707 23.4222 48.7132 22.7441 45.9999 22.7441Z" fill="url(#paint9_linear_16840_33381)"/>
<defs>
<linearGradient id="paint0_linear_16840_33381" x1="18.4924" y1="65.4025" x2="34.2316" y2="90.0129" gradientUnits="userSpaceOnUse">
<stop stop-color="#EAF6FF"/>
<stop offset="1" stop-color="#B3DAFE"/>
</linearGradient>
<linearGradient id="paint1_linear_16840_33381" x1="35.9405" y1="48.9942" x2="87.6413" y2="73.0322" gradientUnits="userSpaceOnUse">
<stop stop-color="#EAF6FF"/>
<stop offset="1" stop-color="#B3DAFE"/>
</linearGradient>
<linearGradient id="paint2_linear_16840_33381" x1="45.7915" y1="51.2026" x2="80.0713" y2="85.4825" gradientUnits="userSpaceOnUse">
<stop stop-color="#EAF6FF"/>
<stop offset="1" stop-color="#B3DAFE"/>
</linearGradient>
<linearGradient id="paint3_linear_16840_33381" x1="27.8618" y1="74.7456" x2="52.562" y2="99.4456" gradientUnits="userSpaceOnUse">
<stop stop-color="#EAF6FF"/>
<stop offset="1" stop-color="#B3DAFE"/>
</linearGradient>
<linearGradient id="paint4_linear_16840_33381" x1="66.8235" y1="47.8038" x2="36.0605" y2="17.0409" gradientUnits="userSpaceOnUse">
<stop stop-color="#D8ECFE" stop-opacity="0"/>
<stop offset="1" stop-color="#678D98"/>
</linearGradient>
<linearGradient id="paint5_linear_16840_33381" x1="64.0426" y1="60.0429" x2="42.0657" y2="38.066" gradientUnits="userSpaceOnUse">
<stop stop-color="#D8ECFE" stop-opacity="0"/>
<stop offset="1" stop-color="#678D98"/>
</linearGradient>
<linearGradient id="paint6_linear_16840_33381" x1="42.8061" y1="39.3406" x2="48.338" y2="44.8723" gradientUnits="userSpaceOnUse">
<stop stop-color="#00CE5B"/>
<stop offset="1" stop-color="#009642"/>
</linearGradient>
<linearGradient id="paint7_linear_16840_33381" x1="33.2587" y1="5.69437" x2="51.2275" y2="11.4642" gradientUnits="userSpaceOnUse">
<stop stop-color="#00CE5B"/>
<stop offset="1" stop-color="#009642"/>
</linearGradient>
<linearGradient id="paint8_linear_16840_33381" x1="37.3351" y1="16.8597" x2="52.2165" y2="18.165" gradientUnits="userSpaceOnUse">
<stop stop-color="#00CE5B"/>
<stop offset="1" stop-color="#009642"/>
</linearGradient>
<linearGradient id="paint9_linear_16840_33381" x1="41.4592" y1="26.6861" x2="54.2445" y2="27.3964" gradientUnits="userSpaceOnUse">
<stop stop-color="#00CE5B"/>
<stop offset="1" stop-color="#009642"/>
</linearGradient>
</defs>
</svg>
