<svg width="95" height="95" viewBox="0 0 95 95" fill="none" xmlns="http://www.w3.org/2000/svg">
<path d="M37.4461 91.7066C56.6136 91.7066 72.152 76.1683 72.152 57.0008C72.152 37.8333 56.6136 22.2949 37.4461 22.2949C18.2786 22.2949 2.74023 37.8333 2.74023 57.0008C2.74023 76.1683 18.2786 91.7066 37.4461 91.7066Z" fill="url(#paint0_linear_17299_29147)"/>
<path d="M37.4463 86.8867C53.9523 86.8867 67.333 73.506 67.333 57C67.333 40.494 53.9523 27.1133 37.4463 27.1133C20.9403 27.1133 7.55957 40.494 7.55957 57C7.55957 73.506 20.9403 86.8867 37.4463 86.8867Z" fill="url(#paint1_linear_17299_29147)"/>
<path d="M2.74023 57.0004C2.74023 76.1678 18.2785 91.7062 37.4461 91.7062C56.6137 91.7062 72.152 76.1678 72.152 57.0004C72.152 52.8492 71.4207 48.8695 70.084 45.1797H4.80801C3.47148 48.8695 2.74023 52.8492 2.74023 57.0004Z" fill="url(#paint2_linear_17299_29147)"/>
<path d="M12.9051 81.5424C26.4586 95.0959 48.4332 95.0959 61.9867 81.5424C75.5402 67.9889 75.5402 46.0143 61.9867 32.4607C59.0514 29.5254 55.7201 27.2283 52.166 25.5645L6.00879 71.7215C7.67266 75.2758 9.96973 78.607 12.9051 81.5424Z" fill="url(#paint3_linear_17299_29147)"/>
<path d="M37.4457 83.4383C52.0464 83.4383 63.8826 71.6021 63.8826 57.0014C63.8826 42.4007 52.0464 30.5645 37.4457 30.5645C22.845 30.5645 11.0088 42.4007 11.0088 57.0014C11.0088 71.6021 22.845 83.4383 37.4457 83.4383Z" fill="url(#paint4_linear_17299_29147)"/>
<path d="M63.8826 57.0014C63.8826 42.4008 52.0465 30.5645 37.4457 30.5645C22.8451 30.5645 11.0088 42.4008 11.0088 57.0014C11.0088 60.1635 11.5658 63.1951 12.584 66.0057H62.3072C63.3256 63.1951 63.8826 60.1635 63.8826 57.0014Z" fill="url(#paint5_linear_17299_29147)"/>
<path d="M56.1393 38.3076C45.815 27.9834 29.0762 27.9834 18.752 38.3076C8.42773 48.6318 8.42773 65.3707 18.752 75.6949C20.9879 77.9309 23.5254 79.6807 26.2328 80.948L61.3926 45.7885C60.125 43.0813 58.3754 40.5437 56.1393 38.3076Z" fill="url(#paint6_linear_17299_29147)"/>
<path d="M37.7945 31.7363L35.8115 56.6639L55.4783 76.3307C55.7012 76.1225 55.9225 75.9115 56.1397 75.6941C61.0957 70.7381 63.6711 64.3039 63.8689 57.8107L37.7945 31.7363Z" fill="url(#paint7_linear_17299_29147)"/>
<path d="M35.1064 59.3412L42.9666 67.2014C44.2551 68.4898 46.3604 68.5436 47.6586 67.2648C47.6756 67.248 47.6926 67.2312 47.7092 67.2143C48.9879 65.9162 48.9342 63.8107 47.6457 62.5223L39.7855 54.6621L35.1064 59.3412Z" fill="url(#paint8_linear_17299_29147)"/>
<path d="M37.4467 33.7832C36.9336 33.7832 36.5176 34.1992 36.5176 34.7123V38.2943C36.5176 38.8074 36.9336 39.2234 37.4467 39.2234C37.9598 39.2234 38.3758 38.8074 38.3758 38.2943V34.7123C38.3758 34.1992 37.9598 33.7832 37.4467 33.7832Z" fill="url(#paint9_linear_17299_29147)"/>
<path d="M37.4467 74.7773C36.9336 74.7773 36.5176 75.1934 36.5176 75.7064V79.2885C36.5176 79.8016 36.9336 80.2176 37.4467 80.2176C37.9598 80.2176 38.3758 79.8016 38.3758 79.2885V75.7064C38.3758 75.1934 37.9598 74.7773 37.4467 74.7773Z" fill="url(#paint10_linear_17299_29147)"/>
<path d="M59.7338 56.0703H56.1518C55.6387 56.0703 55.2227 56.4863 55.2227 56.9994C55.2227 57.5125 55.6387 57.9285 56.1518 57.9285H59.7338C60.2469 57.9285 60.6629 57.5125 60.6629 56.9994C60.6627 56.4863 60.2469 56.0703 59.7338 56.0703Z" fill="url(#paint11_linear_17299_29147)"/>
<path d="M19.6697 56.9994C19.6697 56.4863 19.2537 56.0703 18.7406 56.0703H15.1586C14.6455 56.0703 14.2295 56.4863 14.2295 56.9994C14.2295 57.5125 14.6455 57.9285 15.1586 57.9285H18.7406C19.2539 57.9285 19.6697 57.5125 19.6697 56.9994Z" fill="url(#paint12_linear_17299_29147)"/>
<path d="M27.1069 37.2342C26.8502 36.7899 26.2821 36.6376 25.8377 36.8942C25.3934 37.1508 25.2411 37.719 25.4977 38.1633L27.2887 41.2655C27.5454 41.7098 28.1135 41.8622 28.5579 41.6055C29.0022 41.3489 29.1545 40.7807 28.8979 40.3364L27.1069 37.2342Z" fill="url(#paint13_linear_17299_29147)"/>
<path d="M47.604 72.7342C47.3473 72.2899 46.7792 72.1376 46.3348 72.3942C45.8905 72.6508 45.7381 73.219 45.9948 73.6633L47.7858 76.7655C48.0424 77.2098 48.6106 77.3622 49.0549 77.1055C49.4993 76.8489 49.6516 76.2807 49.395 75.8364L47.604 72.7342Z" fill="url(#paint14_linear_17299_29147)"/>
<path d="M54.1106 48.4526L57.2128 46.6616C57.6571 46.4049 57.8094 45.8368 57.5528 45.3924C57.2962 44.9481 56.728 44.7958 56.2836 45.0524L53.1815 46.8434C52.7372 47.1001 52.5848 47.6682 52.8415 48.1126C53.0981 48.5569 53.6663 48.709 54.1106 48.4526Z" fill="url(#paint15_linear_17299_29147)"/>
<path d="M20.7827 65.5485L17.6805 67.3396C17.2362 67.5962 17.0838 68.1644 17.3405 68.6087C17.5971 69.053 18.1653 69.2054 18.6096 68.9487L21.7118 67.1577C22.1561 66.9011 22.3085 66.3329 22.0518 65.8886C21.7954 65.444 21.227 65.2919 20.7827 65.5485Z" fill="url(#paint16_linear_17299_29147)"/>
<path d="M49.0549 36.8942C48.6106 36.6376 48.0422 36.7899 47.7858 37.2342L45.9948 40.3364C45.7381 40.7807 45.8905 41.3491 46.3348 41.6055C46.7792 41.8622 47.3475 41.7098 47.604 41.2655L49.395 38.1633C49.6514 37.719 49.4993 37.1506 49.0549 36.8942Z" fill="url(#paint17_linear_17299_29147)"/>
<path d="M28.5579 72.3942C28.1135 72.1376 27.5452 72.2899 27.2887 72.7342L25.4977 75.8364C25.2411 76.2807 25.3934 76.8491 25.8377 77.1055C26.2821 77.3622 26.8504 77.2098 27.1069 76.7655L28.8979 73.6633C29.1545 73.219 29.0022 72.6506 28.5579 72.3942Z" fill="url(#paint18_linear_17299_29147)"/>
<path d="M21.7118 46.8434L18.6096 45.0524C18.1653 44.7958 17.5969 44.9481 17.3405 45.3924C17.0838 45.8368 17.2362 46.4051 17.6805 46.6616L20.7827 48.4526C21.227 48.7092 21.7954 48.5569 22.0518 48.1126C22.3085 47.6682 22.1561 47.1001 21.7118 46.8434Z" fill="url(#paint19_linear_17299_29147)"/>
<path d="M57.2127 67.3395L54.1106 65.5485C53.6663 65.2919 53.0979 65.4442 52.8415 65.8885C52.5848 66.3329 52.7372 66.9012 53.1815 67.1577L56.2836 68.9487C56.728 69.2053 57.2961 69.053 57.5528 68.6086C57.8094 68.1643 57.6571 67.596 57.2127 67.3395Z" fill="url(#paint20_linear_17299_29147)"/>
<path d="M37.4459 56.6636H35.8115V40.894C35.8115 38.155 36.1441 35.4259 36.802 32.7669L37.015 31.9056C37.1264 31.456 37.7654 31.456 37.8766 31.9056L38.0896 32.7669C38.7477 35.4259 39.0801 38.155 39.0801 40.894V56.6636H37.4459Z" fill="url(#paint21_linear_17299_29147)"/>
<path d="M37.183 57.0014L36.0273 55.8458L43.2256 48.6475C45.1625 46.7106 47.3273 45.0161 49.6727 43.6012L50.4324 43.1428C50.8289 42.9036 51.2809 43.3555 51.0416 43.752L50.5832 44.5118C49.1682 46.8571 47.4736 49.0221 45.5369 50.9588L38.3387 58.1571L37.183 57.0014Z" fill="url(#paint22_linear_17299_29147)"/>
<path d="M37.4463 60.3086C39.2736 60.3086 40.7549 58.8273 40.7549 57C40.7549 55.1727 39.2736 53.6914 37.4463 53.6914C35.619 53.6914 34.1377 55.1727 34.1377 57C34.1377 58.8273 35.619 60.3086 37.4463 60.3086Z" fill="url(#paint23_linear_17299_29147)"/>
<path d="M34.1377 57C34.1377 58.8273 35.6189 60.3086 37.4463 60.3086C39.2736 60.3086 40.7549 58.8273 40.7549 57C40.7549 56.6043 40.6852 56.2248 40.5578 55.873H34.3348C34.2074 56.2248 34.1377 56.6043 34.1377 57Z" fill="url(#paint24_linear_17299_29147)"/>
<path d="M35.1068 59.3404C36.399 60.6326 38.4939 60.6326 39.7859 59.3404C41.0781 58.0482 41.0781 55.9533 39.7859 54.6613C39.5061 54.3814 39.1885 54.1625 38.8496 54.0039L34.4492 58.4043C34.608 58.743 34.827 59.0605 35.1068 59.3404Z" fill="url(#paint25_linear_17299_29147)"/>
<path d="M7.33075 26.5001L8.41362 25.4172C9.19546 24.6353 9.19546 23.3682 8.41362 22.5864C7.63203 21.8048 6.36471 21.8048 5.58287 22.5864L4.5 23.6693L3.41713 22.5864C2.63554 21.8045 1.36822 21.8045 0.586382 22.5864C-0.195461 23.368 -0.195461 24.6353 0.586382 25.4172L1.66926 26.5001L0.586382 27.583C-0.195461 28.3648 -0.195461 29.6319 0.586382 30.4137C0.977303 30.8047 1.48947 31 2.00163 31C2.51379 31 3.02621 30.8044 3.41687 30.4137L4.49974 29.3309L5.58261 30.4137C5.97353 30.8047 6.4857 31 6.99786 31C7.51002 31 8.02243 30.8044 8.4131 30.4137C9.19494 29.6321 9.19494 28.3648 8.4131 27.583L7.33075 26.5001Z" fill="#FF818F"/>
<path d="M80.7017 76.5L81.5439 75.6578C82.152 75.0497 82.152 74.0642 81.5439 73.4561C80.936 72.8482 79.9503 72.8482 79.3422 73.4561L78.5 74.2983L77.6578 73.4561C77.0499 72.848 76.0642 72.848 75.4561 73.4561C74.848 74.064 74.848 75.0497 75.4561 75.6578L76.2983 76.5L75.4561 77.3423C74.848 77.9504 74.848 78.9359 75.4561 79.544C75.7601 79.8481 76.1585 80 76.5568 80C76.9552 80 77.3537 79.8479 77.6576 79.544L78.4998 78.7018L79.342 79.544C79.6461 79.8481 80.0444 80 80.4428 80C80.8411 80 81.2397 79.8479 81.5435 79.544C82.1516 78.9361 82.1516 77.9504 81.5435 77.3423L80.7017 76.5Z" fill="#17BAF8"/>
<path d="M50.9998 21.6197C50.9998 9.67949 60.6793 0 72.6193 0C84.5484 0 94.2393 9.69082 94.2393 21.6199C94.2391 33.5602 84.5598 43.2395 72.6195 43.2395H54.8852C53.4514 43.2395 52.7332 41.5059 53.7471 40.492L57.332 36.907C53.4195 32.9949 50.9998 27.5898 50.9998 21.6197Z" fill="#FF5A54"/>
<path d="M53.7484 40.4933C52.7344 41.5073 53.4506 43.2397 54.8852 43.2397H62.177C60.7443 43.2397 60.026 41.5073 61.0402 40.4933L63.2633 38.269C64.0027 37.5292 64.0496 36.3483 63.3754 35.5485C60.2039 31.7868 58.2918 26.9259 58.2918 21.62C58.2918 10.9239 66.0604 2.04053 76.2637 0.308109C75.2764 0.138773 74.2666 0.0379918 73.2391 0.00889027C61.1482 -0.331735 51.2043 9.15772 51.0031 21.2517C50.9014 27.3671 53.3404 32.9157 57.332 36.9075L53.7484 40.4933Z" fill="#E64640"/>
<path d="M68.3521 21.6213L64.3304 17.5997C63.1517 16.4209 63.1517 14.51 64.3304 13.3315C65.5089 12.1528 67.4201 12.1528 68.5986 13.3315L72.6203 17.3532L76.6417 13.3313C77.8203 12.1526 79.7314 12.1526 80.9099 13.3313C82.0886 14.5098 82.0886 16.4208 80.9099 17.5995L76.8882 21.6211L80.9099 25.6428C82.0886 26.8215 82.0886 28.7325 80.9099 29.911C80.3207 30.5004 79.5482 30.795 78.7757 30.795C78.0033 30.795 77.231 30.5002 76.6416 29.911L72.6199 25.8893L68.5982 29.911C68.0087 30.5004 67.2367 30.795 66.464 30.795C65.6917 30.795 64.9193 30.5002 64.3298 29.911C63.1511 28.7325 63.1511 26.8215 64.3298 25.6428L68.3521 21.6213Z" fill="#F8F3F1"/>
<path d="M7.61621 94.2324C10.718 94.2324 13.2324 91.718 13.2324 88.6162C13.2324 85.5145 10.718 83 7.61621 83C4.51446 83 2 85.5145 2 88.6162C2 91.718 4.51446 94.2324 7.61621 94.2324Z" fill="#4A72AF"/>
<path d="M13.232 88.6154C13.232 91.7184 10.7168 94.2336 7.61641 94.2336C6.57695 94.2336 5.60176 93.9512 4.76758 93.4559C6.97227 92.9477 8.61484 90.974 8.61484 88.6154C8.61484 86.2594 6.9748 84.2832 4.77012 83.775C5.6043 83.2822 6.57695 83 7.61641 83C10.717 82.9998 13.232 85.515 13.232 88.6154Z" fill="#335589"/>
<defs>
<linearGradient id="paint0_linear_17299_29147" x1="16.2168" y1="35.7717" x2="54.5131" y2="74.0678" gradientUnits="userSpaceOnUse">
<stop stop-color="#F89580"/>
<stop offset="1" stop-color="#C4573A"/>
</linearGradient>
<linearGradient id="paint1_linear_17299_29147" x1="58.3639" y1="77.9176" x2="13.3441" y2="32.8979" gradientUnits="userSpaceOnUse">
<stop stop-color="#F89580"/>
<stop offset="1" stop-color="#C4573A"/>
</linearGradient>
<linearGradient id="paint2_linear_17299_29147" x1="37.4461" y1="62.2557" x2="37.4461" y2="95.4219" gradientUnits="userSpaceOnUse">
<stop stop-color="#C4573A" stop-opacity="0"/>
<stop offset="0.235" stop-color="#BE5539" stop-opacity="0.235"/>
<stop offset="0.539" stop-color="#AE4E35" stop-opacity="0.539"/>
<stop offset="0.8794" stop-color="#934330" stop-opacity="0.879"/>
<stop offset="1" stop-color="#883F2E"/>
</linearGradient>
<linearGradient id="paint3_linear_17299_29147" x1="51.9439" y1="66.5816" x2="66.2291" y2="76.0201" gradientUnits="userSpaceOnUse">
<stop stop-color="#C4573A" stop-opacity="0"/>
<stop offset="0.235" stop-color="#BE5539" stop-opacity="0.235"/>
<stop offset="0.539" stop-color="#AE4E35" stop-opacity="0.539"/>
<stop offset="0.8794" stop-color="#934330" stop-opacity="0.879"/>
<stop offset="1" stop-color="#883F2E"/>
</linearGradient>
<linearGradient id="paint4_linear_17299_29147" x1="53.6168" y1="73.1725" x2="24.4451" y2="44.0008" gradientUnits="userSpaceOnUse">
<stop stop-color="#F5FBFF"/>
<stop offset="1" stop-color="#DBD5EF"/>
</linearGradient>
<linearGradient id="paint5_linear_17299_29147" x1="34.4213" y1="48.1486" x2="28.0424" y2="29.4842" gradientUnits="userSpaceOnUse">
<stop stop-color="#DBD5EF" stop-opacity="0"/>
<stop offset="0.2585" stop-color="#D9D2EC" stop-opacity="0.259"/>
<stop offset="0.4295" stop-color="#D2CAE3" stop-opacity="0.43"/>
<stop offset="0.5751" stop-color="#C6BCD4" stop-opacity="0.575"/>
<stop offset="0.7065" stop-color="#B6A9BF" stop-opacity="0.707"/>
<stop offset="0.8283" stop-color="#A08FA4" stop-opacity="0.828"/>
<stop offset="0.9415" stop-color="#867082" stop-opacity="0.942"/>
<stop offset="1" stop-color="#765D6E"/>
</linearGradient>
<linearGradient id="paint6_linear_17299_29147" x1="24.4623" y1="50.7684" x2="12.6494" y2="45.098" gradientUnits="userSpaceOnUse">
<stop stop-color="#DBD5EF" stop-opacity="0"/>
<stop offset="0.2585" stop-color="#D9D2EC" stop-opacity="0.259"/>
<stop offset="0.4295" stop-color="#D2CAE3" stop-opacity="0.43"/>
<stop offset="0.5751" stop-color="#C6BCD4" stop-opacity="0.575"/>
<stop offset="0.7065" stop-color="#B6A9BF" stop-opacity="0.707"/>
<stop offset="0.8283" stop-color="#A08FA4" stop-opacity="0.828"/>
<stop offset="0.9415" stop-color="#867082" stop-opacity="0.942"/>
<stop offset="1" stop-color="#765D6E"/>
</linearGradient>
<linearGradient id="paint7_linear_17299_29147" x1="47.9344" y1="54.1777" x2="35.8852" y2="52.8389" gradientUnits="userSpaceOnUse">
<stop stop-color="#DBD5EF" stop-opacity="0"/>
<stop offset="0.2585" stop-color="#D9D2EC" stop-opacity="0.259"/>
<stop offset="0.4295" stop-color="#D2CAE3" stop-opacity="0.43"/>
<stop offset="0.5751" stop-color="#C6BCD4" stop-opacity="0.575"/>
<stop offset="0.7065" stop-color="#B6A9BF" stop-opacity="0.707"/>
<stop offset="0.8283" stop-color="#A08FA4" stop-opacity="0.828"/>
<stop offset="0.9415" stop-color="#867082" stop-opacity="0.942"/>
<stop offset="1" stop-color="#765D6E"/>
</linearGradient>
<linearGradient id="paint8_linear_17299_29147" x1="46.6357" y1="63.1428" x2="35.768" y2="58.8902" gradientUnits="userSpaceOnUse">
<stop stop-color="#DBD5EF" stop-opacity="0"/>
<stop offset="0.2585" stop-color="#D9D2EC" stop-opacity="0.259"/>
<stop offset="0.4295" stop-color="#D2CAE3" stop-opacity="0.43"/>
<stop offset="0.5751" stop-color="#C6BCD4" stop-opacity="0.575"/>
<stop offset="0.7065" stop-color="#B6A9BF" stop-opacity="0.707"/>
<stop offset="0.8283" stop-color="#A08FA4" stop-opacity="0.828"/>
<stop offset="0.9415" stop-color="#867082" stop-opacity="0.942"/>
<stop offset="1" stop-color="#765D6E"/>
</linearGradient>
<linearGradient id="paint9_linear_17299_29147" x1="138.868" y1="106.042" x2="19.0784" y2="23.9092" gradientUnits="userSpaceOnUse">
<stop stop-color="#DBD5EF" stop-opacity="0"/>
<stop offset="0.2585" stop-color="#D9D2EC" stop-opacity="0.259"/>
<stop offset="0.4295" stop-color="#D2CAE3" stop-opacity="0.43"/>
<stop offset="0.5751" stop-color="#C6BCD4" stop-opacity="0.575"/>
<stop offset="0.7065" stop-color="#B6A9BF" stop-opacity="0.707"/>
<stop offset="0.8283" stop-color="#A08FA4" stop-opacity="0.828"/>
<stop offset="0.9415" stop-color="#867082" stop-opacity="0.942"/>
<stop offset="1" stop-color="#765D6E"/>
</linearGradient>
<linearGradient id="paint10_linear_17299_29147" x1="119.749" y1="133.927" x2="-0.0403281" y2="51.7945" gradientUnits="userSpaceOnUse">
<stop stop-color="#DBD5EF" stop-opacity="0"/>
<stop offset="0.2585" stop-color="#D9D2EC" stop-opacity="0.259"/>
<stop offset="0.4295" stop-color="#D2CAE3" stop-opacity="0.43"/>
<stop offset="0.5751" stop-color="#C6BCD4" stop-opacity="0.575"/>
<stop offset="0.7065" stop-color="#B6A9BF" stop-opacity="0.707"/>
<stop offset="0.8283" stop-color="#A08FA4" stop-opacity="0.828"/>
<stop offset="0.9415" stop-color="#867082" stop-opacity="0.942"/>
<stop offset="1" stop-color="#765D6E"/>
</linearGradient>
<linearGradient id="paint11_linear_17299_29147" x1="135.862" y1="110.424" x2="16.0727" y2="28.2915" gradientUnits="userSpaceOnUse">
<stop stop-color="#DBD5EF" stop-opacity="0"/>
<stop offset="0.2585" stop-color="#D9D2EC" stop-opacity="0.259"/>
<stop offset="0.4295" stop-color="#D2CAE3" stop-opacity="0.43"/>
<stop offset="0.5751" stop-color="#C6BCD4" stop-opacity="0.575"/>
<stop offset="0.7065" stop-color="#B6A9BF" stop-opacity="0.707"/>
<stop offset="0.8283" stop-color="#A08FA4" stop-opacity="0.828"/>
<stop offset="0.9415" stop-color="#867082" stop-opacity="0.942"/>
<stop offset="1" stop-color="#765D6E"/>
</linearGradient>
<linearGradient id="paint12_linear_17299_29147" x1="122.753" y1="129.543" x2="2.96431" y2="47.4103" gradientUnits="userSpaceOnUse">
<stop stop-color="#DBD5EF" stop-opacity="0"/>
<stop offset="0.2585" stop-color="#D9D2EC" stop-opacity="0.259"/>
<stop offset="0.4295" stop-color="#D2CAE3" stop-opacity="0.43"/>
<stop offset="0.5751" stop-color="#C6BCD4" stop-opacity="0.575"/>
<stop offset="0.7065" stop-color="#B6A9BF" stop-opacity="0.707"/>
<stop offset="0.8283" stop-color="#A08FA4" stop-opacity="0.828"/>
<stop offset="0.9415" stop-color="#867082" stop-opacity="0.942"/>
<stop offset="1" stop-color="#765D6E"/>
</linearGradient>
<linearGradient id="paint13_linear_17299_29147" x1="134.309" y1="112.69" x2="14.52" y2="30.5575" gradientUnits="userSpaceOnUse">
<stop stop-color="#DBD5EF" stop-opacity="0"/>
<stop offset="0.2585" stop-color="#D9D2EC" stop-opacity="0.259"/>
<stop offset="0.4295" stop-color="#D2CAE3" stop-opacity="0.43"/>
<stop offset="0.5751" stop-color="#C6BCD4" stop-opacity="0.575"/>
<stop offset="0.7065" stop-color="#B6A9BF" stop-opacity="0.707"/>
<stop offset="0.8283" stop-color="#A08FA4" stop-opacity="0.828"/>
<stop offset="0.9415" stop-color="#867082" stop-opacity="0.942"/>
<stop offset="1" stop-color="#765D6E"/>
</linearGradient>
<linearGradient id="paint14_linear_17299_29147" x1="124.306" y1="127.278" x2="4.5172" y2="45.1456" gradientUnits="userSpaceOnUse">
<stop stop-color="#DBD5EF" stop-opacity="0"/>
<stop offset="0.2585" stop-color="#D9D2EC" stop-opacity="0.259"/>
<stop offset="0.4295" stop-color="#D2CAE3" stop-opacity="0.43"/>
<stop offset="0.5751" stop-color="#C6BCD4" stop-opacity="0.575"/>
<stop offset="0.7065" stop-color="#B6A9BF" stop-opacity="0.707"/>
<stop offset="0.8283" stop-color="#A08FA4" stop-opacity="0.828"/>
<stop offset="0.9415" stop-color="#867082" stop-opacity="0.942"/>
<stop offset="1" stop-color="#765D6E"/>
</linearGradient>
<linearGradient id="paint15_linear_17299_29147" x1="139.764" y1="104.735" x2="19.9749" y2="22.6023" gradientUnits="userSpaceOnUse">
<stop stop-color="#DBD5EF" stop-opacity="0"/>
<stop offset="0.2585" stop-color="#D9D2EC" stop-opacity="0.259"/>
<stop offset="0.4295" stop-color="#D2CAE3" stop-opacity="0.43"/>
<stop offset="0.5751" stop-color="#C6BCD4" stop-opacity="0.575"/>
<stop offset="0.7065" stop-color="#B6A9BF" stop-opacity="0.707"/>
<stop offset="0.8283" stop-color="#A08FA4" stop-opacity="0.828"/>
<stop offset="0.9415" stop-color="#867082" stop-opacity="0.942"/>
<stop offset="1" stop-color="#765D6E"/>
</linearGradient>
<linearGradient id="paint16_linear_17299_29147" x1="118.852" y1="135.234" x2="-0.936861" y2="53.1017" gradientUnits="userSpaceOnUse">
<stop stop-color="#DBD5EF" stop-opacity="0"/>
<stop offset="0.2585" stop-color="#D9D2EC" stop-opacity="0.259"/>
<stop offset="0.4295" stop-color="#D2CAE3" stop-opacity="0.43"/>
<stop offset="0.5751" stop-color="#C6BCD4" stop-opacity="0.575"/>
<stop offset="0.7065" stop-color="#B6A9BF" stop-opacity="0.707"/>
<stop offset="0.8283" stop-color="#A08FA4" stop-opacity="0.828"/>
<stop offset="0.9415" stop-color="#867082" stop-opacity="0.942"/>
<stop offset="1" stop-color="#765D6E"/>
</linearGradient>
<linearGradient id="paint17_linear_17299_29147" x1="140.864" y1="103.131" x2="21.0747" y2="20.9979" gradientUnits="userSpaceOnUse">
<stop stop-color="#DBD5EF" stop-opacity="0"/>
<stop offset="0.2585" stop-color="#D9D2EC" stop-opacity="0.259"/>
<stop offset="0.4295" stop-color="#D2CAE3" stop-opacity="0.43"/>
<stop offset="0.5751" stop-color="#C6BCD4" stop-opacity="0.575"/>
<stop offset="0.7065" stop-color="#B6A9BF" stop-opacity="0.707"/>
<stop offset="0.8283" stop-color="#A08FA4" stop-opacity="0.828"/>
<stop offset="0.9415" stop-color="#867082" stop-opacity="0.942"/>
<stop offset="1" stop-color="#765D6E"/>
</linearGradient>
<linearGradient id="paint18_linear_17299_29147" x1="117.752" y1="136.838" x2="-2.03749" y2="54.705" gradientUnits="userSpaceOnUse">
<stop stop-color="#DBD5EF" stop-opacity="0"/>
<stop offset="0.2585" stop-color="#D9D2EC" stop-opacity="0.259"/>
<stop offset="0.4295" stop-color="#D2CAE3" stop-opacity="0.43"/>
<stop offset="0.5751" stop-color="#C6BCD4" stop-opacity="0.575"/>
<stop offset="0.7065" stop-color="#B6A9BF" stop-opacity="0.707"/>
<stop offset="0.8283" stop-color="#A08FA4" stop-opacity="0.828"/>
<stop offset="0.9415" stop-color="#867082" stop-opacity="0.942"/>
<stop offset="1" stop-color="#765D6E"/>
</linearGradient>
<linearGradient id="paint19_linear_17299_29147" x1="128.412" y1="121.293" x2="8.62252" y2="39.16" gradientUnits="userSpaceOnUse">
<stop stop-color="#DBD5EF" stop-opacity="0"/>
<stop offset="0.2585" stop-color="#D9D2EC" stop-opacity="0.259"/>
<stop offset="0.4295" stop-color="#D2CAE3" stop-opacity="0.43"/>
<stop offset="0.5751" stop-color="#C6BCD4" stop-opacity="0.575"/>
<stop offset="0.7065" stop-color="#B6A9BF" stop-opacity="0.707"/>
<stop offset="0.8283" stop-color="#A08FA4" stop-opacity="0.828"/>
<stop offset="0.9415" stop-color="#867082" stop-opacity="0.942"/>
<stop offset="1" stop-color="#765D6E"/>
</linearGradient>
<linearGradient id="paint20_linear_17299_29147" x1="130.204" y1="118.677" x2="10.4153" y2="36.5443" gradientUnits="userSpaceOnUse">
<stop stop-color="#DBD5EF" stop-opacity="0"/>
<stop offset="0.2585" stop-color="#D9D2EC" stop-opacity="0.259"/>
<stop offset="0.4295" stop-color="#D2CAE3" stop-opacity="0.43"/>
<stop offset="0.5751" stop-color="#C6BCD4" stop-opacity="0.575"/>
<stop offset="0.7065" stop-color="#B6A9BF" stop-opacity="0.707"/>
<stop offset="0.8283" stop-color="#A08FA4" stop-opacity="0.828"/>
<stop offset="0.9415" stop-color="#867082" stop-opacity="0.942"/>
<stop offset="1" stop-color="#765D6E"/>
</linearGradient>
<linearGradient id="paint21_linear_17299_29147" x1="36.4877" y1="44.1159" x2="39.1004" y2="44.1159" gradientUnits="userSpaceOnUse">
<stop stop-color="#5A5A5A"/>
<stop offset="1" stop-color="#444444"/>
</linearGradient>
<linearGradient id="paint22_linear_17299_29147" x1="43.419" y1="49.36" x2="45.2663" y2="51.2073" gradientUnits="userSpaceOnUse">
<stop stop-color="#5A5A5A"/>
<stop offset="1" stop-color="#444444"/>
</linearGradient>
<linearGradient id="paint23_linear_17299_29147" x1="35.4225" y1="54.9762" x2="39.0732" y2="58.6271" gradientUnits="userSpaceOnUse">
<stop stop-color="#C8EFFE"/>
<stop offset="0.1027" stop-color="#C0EEFE"/>
<stop offset="0.2579" stop-color="#ABEBFD"/>
<stop offset="0.4463" stop-color="#89E6FD"/>
<stop offset="0.6607" stop-color="#5ADEFC"/>
<stop offset="0.8941" stop-color="#1ED5FB"/>
<stop offset="1" stop-color="#01D0FB"/>
</linearGradient>
<linearGradient id="paint24_linear_17299_29147" x1="37.4465" y1="56.892" x2="37.4465" y2="60.2943" gradientUnits="userSpaceOnUse">
<stop stop-color="#0290CF" stop-opacity="0"/>
<stop offset="0.8724" stop-color="#0290CF" stop-opacity="0.872"/>
<stop offset="1" stop-color="#0290CF"/>
</linearGradient>
<linearGradient id="paint25_linear_17299_29147" x1="37.3564" y1="56.9107" x2="39.9131" y2="59.4674" gradientUnits="userSpaceOnUse">
<stop stop-color="#0290CF" stop-opacity="0"/>
<stop offset="0.8724" stop-color="#0290CF" stop-opacity="0.872"/>
<stop offset="1" stop-color="#0290CF"/>
</linearGradient>
</defs>
</svg>
